%TF.GenerationSoftware,KiCad,Pcbnew,5.1.10-88a1d61d58~90~ubuntu20.04.1*%
%TF.CreationDate,2021-10-29T09:56:54+11:00*%
%TF.ProjectId,simple-photodetector,73696d70-6c65-42d7-9068-6f746f646574,rev?*%
%TF.SameCoordinates,Original*%
%TF.FileFunction,Copper,L1,Top*%
%TF.FilePolarity,Positive*%
%FSLAX46Y46*%
G04 Gerber Fmt 4.6, Leading zero omitted, Abs format (unit mm)*
G04 Created by KiCad (PCBNEW 5.1.10-88a1d61d58~90~ubuntu20.04.1) date 2021-10-29 09:56:54*
%MOMM*%
%LPD*%
G01*
G04 APERTURE LIST*
%TA.AperFunction,NonConductor*%
%ADD10C,0.300000*%
%TD*%
%TA.AperFunction,ComponentPad*%
%ADD11C,1.440000*%
%TD*%
%TA.AperFunction,ComponentPad*%
%ADD12R,1.600000X1.600000*%
%TD*%
%TA.AperFunction,ComponentPad*%
%ADD13C,1.600000*%
%TD*%
%TA.AperFunction,ComponentPad*%
%ADD14R,1.700000X1.700000*%
%TD*%
%TA.AperFunction,ComponentPad*%
%ADD15O,1.700000X1.700000*%
%TD*%
%TA.AperFunction,ComponentPad*%
%ADD16C,2.250000*%
%TD*%
%TA.AperFunction,ComponentPad*%
%ADD17R,1.800000X1.800000*%
%TD*%
%TA.AperFunction,ComponentPad*%
%ADD18O,1.800000X1.800000*%
%TD*%
%TA.AperFunction,ViaPad*%
%ADD19C,0.800000*%
%TD*%
%TA.AperFunction,Conductor*%
%ADD20C,0.500000*%
%TD*%
G04 APERTURE END LIST*
D10*
X149892857Y-83678571D02*
X149392857Y-82964285D01*
X149035714Y-83678571D02*
X149035714Y-82178571D01*
X149607142Y-82178571D01*
X149750000Y-82250000D01*
X149821428Y-82321428D01*
X149892857Y-82464285D01*
X149892857Y-82678571D01*
X149821428Y-82821428D01*
X149750000Y-82892857D01*
X149607142Y-82964285D01*
X149035714Y-82964285D01*
X150321428Y-82178571D02*
X151178571Y-82178571D01*
X150750000Y-83678571D02*
X150750000Y-82178571D01*
X122285714Y-54678571D02*
X122785714Y-56178571D01*
X123285714Y-54678571D01*
X124571428Y-56178571D02*
X123714285Y-56178571D01*
X124142857Y-56178571D02*
X124142857Y-54678571D01*
X124000000Y-54892857D01*
X123857142Y-55035714D01*
X123714285Y-55107142D01*
D11*
%TO.P,RV1,3*%
%TO.N,GND*%
X141080000Y-82500000D03*
%TO.P,RV1,2*%
%TO.N,Net-(J2-Pad1)*%
X138540000Y-79960000D03*
%TO.P,RV1,1*%
%TO.N,Net-(RV1-Pad1)*%
X136000000Y-82500000D03*
%TD*%
D12*
%TO.P,C1,1*%
%TO.N,/VDD*%
X130750000Y-55750000D03*
D13*
%TO.P,C1,2*%
%TO.N,GND*%
X130750000Y-57750000D03*
%TD*%
%TO.P,C2,2*%
%TO.N,/VSS*%
X147750000Y-66250000D03*
D12*
%TO.P,C2,1*%
%TO.N,GND*%
X149750000Y-66250000D03*
%TD*%
%TO.P,C3,1*%
%TO.N,/VDD*%
X137000000Y-55750000D03*
D13*
%TO.P,C3,2*%
%TO.N,/VSS*%
X137000000Y-57750000D03*
%TD*%
%TO.P,C4,1*%
%TO.N,/VSS*%
%TA.AperFunction,SMDPad,CuDef*%
G36*
G01*
X124150001Y-64662500D02*
X122849999Y-64662500D01*
G75*
G02*
X122600000Y-64412501I0J249999D01*
G01*
X122600000Y-63587499D01*
G75*
G02*
X122849999Y-63337500I249999J0D01*
G01*
X124150001Y-63337500D01*
G75*
G02*
X124400000Y-63587499I0J-249999D01*
G01*
X124400000Y-64412501D01*
G75*
G02*
X124150001Y-64662500I-249999J0D01*
G01*
G37*
%TD.AperFunction*%
%TO.P,C4,2*%
%TO.N,GND*%
%TA.AperFunction,SMDPad,CuDef*%
G36*
G01*
X124150001Y-61537500D02*
X122849999Y-61537500D01*
G75*
G02*
X122600000Y-61287501I0J249999D01*
G01*
X122600000Y-60462499D01*
G75*
G02*
X122849999Y-60212500I249999J0D01*
G01*
X124150001Y-60212500D01*
G75*
G02*
X124400000Y-60462499I0J-249999D01*
G01*
X124400000Y-61287501D01*
G75*
G02*
X124150001Y-61537500I-249999J0D01*
G01*
G37*
%TD.AperFunction*%
%TD*%
%TO.P,C5,2*%
%TO.N,Net-(C5-Pad2)*%
%TA.AperFunction,SMDPad,CuDef*%
G36*
G01*
X127287500Y-65349999D02*
X127287500Y-66650001D01*
G75*
G02*
X127037501Y-66900000I-249999J0D01*
G01*
X126212499Y-66900000D01*
G75*
G02*
X125962500Y-66650001I0J249999D01*
G01*
X125962500Y-65349999D01*
G75*
G02*
X126212499Y-65100000I249999J0D01*
G01*
X127037501Y-65100000D01*
G75*
G02*
X127287500Y-65349999I0J-249999D01*
G01*
G37*
%TD.AperFunction*%
%TO.P,C5,1*%
%TO.N,Net-(C5-Pad1)*%
%TA.AperFunction,SMDPad,CuDef*%
G36*
G01*
X130412500Y-65349999D02*
X130412500Y-66650001D01*
G75*
G02*
X130162501Y-66900000I-249999J0D01*
G01*
X129337499Y-66900000D01*
G75*
G02*
X129087500Y-66650001I0J249999D01*
G01*
X129087500Y-65349999D01*
G75*
G02*
X129337499Y-65100000I249999J0D01*
G01*
X130162501Y-65100000D01*
G75*
G02*
X130412500Y-65349999I0J-249999D01*
G01*
G37*
%TD.AperFunction*%
%TD*%
%TO.P,C6,1*%
%TO.N,GND*%
%TA.AperFunction,SMDPad,CuDef*%
G36*
G01*
X139287500Y-74599999D02*
X139287500Y-75900001D01*
G75*
G02*
X139037501Y-76150000I-249999J0D01*
G01*
X138212499Y-76150000D01*
G75*
G02*
X137962500Y-75900001I0J249999D01*
G01*
X137962500Y-74599999D01*
G75*
G02*
X138212499Y-74350000I249999J0D01*
G01*
X139037501Y-74350000D01*
G75*
G02*
X139287500Y-74599999I0J-249999D01*
G01*
G37*
%TD.AperFunction*%
%TO.P,C6,2*%
%TO.N,/VDD*%
%TA.AperFunction,SMDPad,CuDef*%
G36*
G01*
X136162500Y-74599999D02*
X136162500Y-75900001D01*
G75*
G02*
X135912501Y-76150000I-249999J0D01*
G01*
X135087499Y-76150000D01*
G75*
G02*
X134837500Y-75900001I0J249999D01*
G01*
X134837500Y-74599999D01*
G75*
G02*
X135087499Y-74350000I249999J0D01*
G01*
X135912501Y-74350000D01*
G75*
G02*
X136162500Y-74599999I0J-249999D01*
G01*
G37*
%TD.AperFunction*%
%TD*%
%TO.P,C7,2*%
%TO.N,/VSS*%
%TA.AperFunction,SMDPad,CuDef*%
G36*
G01*
X123400001Y-77600000D02*
X122099999Y-77600000D01*
G75*
G02*
X121850000Y-77350001I0J249999D01*
G01*
X121850000Y-76524999D01*
G75*
G02*
X122099999Y-76275000I249999J0D01*
G01*
X123400001Y-76275000D01*
G75*
G02*
X123650000Y-76524999I0J-249999D01*
G01*
X123650000Y-77350001D01*
G75*
G02*
X123400001Y-77600000I-249999J0D01*
G01*
G37*
%TD.AperFunction*%
%TO.P,C7,1*%
%TO.N,GND*%
%TA.AperFunction,SMDPad,CuDef*%
G36*
G01*
X123400001Y-80725000D02*
X122099999Y-80725000D01*
G75*
G02*
X121850000Y-80475001I0J249999D01*
G01*
X121850000Y-79649999D01*
G75*
G02*
X122099999Y-79400000I249999J0D01*
G01*
X123400001Y-79400000D01*
G75*
G02*
X123650000Y-79649999I0J-249999D01*
G01*
X123650000Y-80475001D01*
G75*
G02*
X123400001Y-80725000I-249999J0D01*
G01*
G37*
%TD.AperFunction*%
%TD*%
%TO.P,D1,1*%
%TO.N,/VDD*%
%TA.AperFunction,SMDPad,CuDef*%
G36*
G01*
X140562500Y-57125000D02*
X140562500Y-55875000D01*
G75*
G02*
X140812500Y-55625000I250000J0D01*
G01*
X141737500Y-55625000D01*
G75*
G02*
X141987500Y-55875000I0J-250000D01*
G01*
X141987500Y-57125000D01*
G75*
G02*
X141737500Y-57375000I-250000J0D01*
G01*
X140812500Y-57375000D01*
G75*
G02*
X140562500Y-57125000I0J250000D01*
G01*
G37*
%TD.AperFunction*%
%TO.P,D1,2*%
%TO.N,Net-(D1-Pad2)*%
%TA.AperFunction,SMDPad,CuDef*%
G36*
G01*
X143537500Y-57125000D02*
X143537500Y-55875000D01*
G75*
G02*
X143787500Y-55625000I250000J0D01*
G01*
X144712500Y-55625000D01*
G75*
G02*
X144962500Y-55875000I0J-250000D01*
G01*
X144962500Y-57125000D01*
G75*
G02*
X144712500Y-57375000I-250000J0D01*
G01*
X143787500Y-57375000D01*
G75*
G02*
X143537500Y-57125000I0J250000D01*
G01*
G37*
%TD.AperFunction*%
%TD*%
%TO.P,D2,2*%
%TO.N,/VSS*%
%TA.AperFunction,SMDPad,CuDef*%
G36*
G01*
X141987500Y-60875000D02*
X141987500Y-62125000D01*
G75*
G02*
X141737500Y-62375000I-250000J0D01*
G01*
X140812500Y-62375000D01*
G75*
G02*
X140562500Y-62125000I0J250000D01*
G01*
X140562500Y-60875000D01*
G75*
G02*
X140812500Y-60625000I250000J0D01*
G01*
X141737500Y-60625000D01*
G75*
G02*
X141987500Y-60875000I0J-250000D01*
G01*
G37*
%TD.AperFunction*%
%TO.P,D2,1*%
%TO.N,Net-(D2-Pad1)*%
%TA.AperFunction,SMDPad,CuDef*%
G36*
G01*
X144962500Y-60875000D02*
X144962500Y-62125000D01*
G75*
G02*
X144712500Y-62375000I-250000J0D01*
G01*
X143787500Y-62375000D01*
G75*
G02*
X143537500Y-62125000I0J250000D01*
G01*
X143537500Y-60875000D01*
G75*
G02*
X143787500Y-60625000I250000J0D01*
G01*
X144712500Y-60625000D01*
G75*
G02*
X144962500Y-60875000I0J-250000D01*
G01*
G37*
%TD.AperFunction*%
%TD*%
%TO.P,R1,1*%
%TO.N,Net-(C5-Pad1)*%
%TA.AperFunction,SMDPad,CuDef*%
G36*
G01*
X130400000Y-69125000D02*
X130400000Y-70375000D01*
G75*
G02*
X130150000Y-70625000I-250000J0D01*
G01*
X129350000Y-70625000D01*
G75*
G02*
X129100000Y-70375000I0J250000D01*
G01*
X129100000Y-69125000D01*
G75*
G02*
X129350000Y-68875000I250000J0D01*
G01*
X130150000Y-68875000D01*
G75*
G02*
X130400000Y-69125000I0J-250000D01*
G01*
G37*
%TD.AperFunction*%
%TO.P,R1,2*%
%TO.N,Net-(C5-Pad2)*%
%TA.AperFunction,SMDPad,CuDef*%
G36*
G01*
X127300000Y-69125000D02*
X127300000Y-70375000D01*
G75*
G02*
X127050000Y-70625000I-250000J0D01*
G01*
X126250000Y-70625000D01*
G75*
G02*
X126000000Y-70375000I0J250000D01*
G01*
X126000000Y-69125000D01*
G75*
G02*
X126250000Y-68875000I250000J0D01*
G01*
X127050000Y-68875000D01*
G75*
G02*
X127300000Y-69125000I0J-250000D01*
G01*
G37*
%TD.AperFunction*%
%TD*%
%TO.P,U1,1*%
%TO.N,Net-(C5-Pad1)*%
%TA.AperFunction,SMDPad,CuDef*%
G36*
G01*
X125550000Y-73245000D02*
X125550000Y-72945000D01*
G75*
G02*
X125700000Y-72795000I150000J0D01*
G01*
X127350000Y-72795000D01*
G75*
G02*
X127500000Y-72945000I0J-150000D01*
G01*
X127500000Y-73245000D01*
G75*
G02*
X127350000Y-73395000I-150000J0D01*
G01*
X125700000Y-73395000D01*
G75*
G02*
X125550000Y-73245000I0J150000D01*
G01*
G37*
%TD.AperFunction*%
%TO.P,U1,2*%
%TO.N,Net-(C5-Pad2)*%
%TA.AperFunction,SMDPad,CuDef*%
G36*
G01*
X125550000Y-74515000D02*
X125550000Y-74215000D01*
G75*
G02*
X125700000Y-74065000I150000J0D01*
G01*
X127350000Y-74065000D01*
G75*
G02*
X127500000Y-74215000I0J-150000D01*
G01*
X127500000Y-74515000D01*
G75*
G02*
X127350000Y-74665000I-150000J0D01*
G01*
X125700000Y-74665000D01*
G75*
G02*
X125550000Y-74515000I0J150000D01*
G01*
G37*
%TD.AperFunction*%
%TO.P,U1,3*%
%TO.N,GND*%
%TA.AperFunction,SMDPad,CuDef*%
G36*
G01*
X125550000Y-75785000D02*
X125550000Y-75485000D01*
G75*
G02*
X125700000Y-75335000I150000J0D01*
G01*
X127350000Y-75335000D01*
G75*
G02*
X127500000Y-75485000I0J-150000D01*
G01*
X127500000Y-75785000D01*
G75*
G02*
X127350000Y-75935000I-150000J0D01*
G01*
X125700000Y-75935000D01*
G75*
G02*
X125550000Y-75785000I0J150000D01*
G01*
G37*
%TD.AperFunction*%
%TO.P,U1,4*%
%TO.N,/VSS*%
%TA.AperFunction,SMDPad,CuDef*%
G36*
G01*
X125550000Y-77055000D02*
X125550000Y-76755000D01*
G75*
G02*
X125700000Y-76605000I150000J0D01*
G01*
X127350000Y-76605000D01*
G75*
G02*
X127500000Y-76755000I0J-150000D01*
G01*
X127500000Y-77055000D01*
G75*
G02*
X127350000Y-77205000I-150000J0D01*
G01*
X125700000Y-77205000D01*
G75*
G02*
X125550000Y-77055000I0J150000D01*
G01*
G37*
%TD.AperFunction*%
%TO.P,U1,5*%
%TO.N,Net-(C5-Pad1)*%
%TA.AperFunction,SMDPad,CuDef*%
G36*
G01*
X130500000Y-77055000D02*
X130500000Y-76755000D01*
G75*
G02*
X130650000Y-76605000I150000J0D01*
G01*
X132300000Y-76605000D01*
G75*
G02*
X132450000Y-76755000I0J-150000D01*
G01*
X132450000Y-77055000D01*
G75*
G02*
X132300000Y-77205000I-150000J0D01*
G01*
X130650000Y-77205000D01*
G75*
G02*
X130500000Y-77055000I0J150000D01*
G01*
G37*
%TD.AperFunction*%
%TO.P,U1,6*%
%TO.N,Net-(RV1-Pad1)*%
%TA.AperFunction,SMDPad,CuDef*%
G36*
G01*
X130500000Y-75785000D02*
X130500000Y-75485000D01*
G75*
G02*
X130650000Y-75335000I150000J0D01*
G01*
X132300000Y-75335000D01*
G75*
G02*
X132450000Y-75485000I0J-150000D01*
G01*
X132450000Y-75785000D01*
G75*
G02*
X132300000Y-75935000I-150000J0D01*
G01*
X130650000Y-75935000D01*
G75*
G02*
X130500000Y-75785000I0J150000D01*
G01*
G37*
%TD.AperFunction*%
%TO.P,U1,7*%
%TO.N,Net-(J2-Pad1)*%
%TA.AperFunction,SMDPad,CuDef*%
G36*
G01*
X130500000Y-74515000D02*
X130500000Y-74215000D01*
G75*
G02*
X130650000Y-74065000I150000J0D01*
G01*
X132300000Y-74065000D01*
G75*
G02*
X132450000Y-74215000I0J-150000D01*
G01*
X132450000Y-74515000D01*
G75*
G02*
X132300000Y-74665000I-150000J0D01*
G01*
X130650000Y-74665000D01*
G75*
G02*
X130500000Y-74515000I0J150000D01*
G01*
G37*
%TD.AperFunction*%
%TO.P,U1,8*%
%TO.N,/VDD*%
%TA.AperFunction,SMDPad,CuDef*%
G36*
G01*
X130500000Y-73245000D02*
X130500000Y-72945000D01*
G75*
G02*
X130650000Y-72795000I150000J0D01*
G01*
X132300000Y-72795000D01*
G75*
G02*
X132450000Y-72945000I0J-150000D01*
G01*
X132450000Y-73245000D01*
G75*
G02*
X132300000Y-73395000I-150000J0D01*
G01*
X130650000Y-73395000D01*
G75*
G02*
X130500000Y-73245000I0J150000D01*
G01*
G37*
%TD.AperFunction*%
%TD*%
D14*
%TO.P,J1,1*%
%TO.N,Net-(D1-Pad2)*%
X147750000Y-56500000D03*
D15*
%TO.P,J1,2*%
%TO.N,GND*%
X147750000Y-59040000D03*
%TO.P,J1,3*%
%TO.N,Net-(D2-Pad1)*%
X147750000Y-61580000D03*
%TD*%
D16*
%TO.P,J2,2*%
%TO.N,GND*%
X145210000Y-74210000D03*
X150290000Y-74210000D03*
X150290000Y-79290000D03*
X145210000Y-79290000D03*
%TO.P,J2,1*%
%TO.N,Net-(J2-Pad1)*%
X147750000Y-76750000D03*
%TD*%
D17*
%TO.P,D3,1*%
%TO.N,Net-(C5-Pad2)*%
X123500000Y-70290000D03*
D18*
%TO.P,D3,2*%
%TO.N,/VSS*%
X123500000Y-67750000D03*
%TD*%
D19*
%TO.N,GND*%
X123500000Y-57500000D03*
X122750000Y-81750000D03*
X123750000Y-74500000D03*
X141000000Y-73750000D03*
%TO.N,/VSS*%
X128750000Y-76500000D03*
%TD*%
D20*
%TO.N,GND*%
X123500000Y-60875000D02*
X123500000Y-57500000D01*
X122750000Y-80062500D02*
X122750000Y-81750000D01*
X124885000Y-75635000D02*
X123750000Y-74500000D01*
X126525000Y-75635000D02*
X124885000Y-75635000D01*
X139500000Y-75250000D02*
X141000000Y-73750000D01*
X138625000Y-75250000D02*
X139500000Y-75250000D01*
%TO.N,/VDD*%
X140525000Y-55750000D02*
X141275000Y-56500000D01*
X137000000Y-55750000D02*
X140525000Y-55750000D01*
X132500000Y-55750000D02*
X137000000Y-55750000D01*
X130750000Y-55750000D02*
X132500000Y-55750000D01*
X131475000Y-61275000D02*
X137000000Y-55750000D01*
X131475000Y-73095000D02*
X131475000Y-61275000D01*
X133345000Y-73095000D02*
X135500000Y-75250000D01*
X131475000Y-73095000D02*
X133345000Y-73095000D01*
%TO.N,/VSS*%
X140750000Y-61500000D02*
X141275000Y-61500000D01*
X137000000Y-57750000D02*
X140750000Y-61500000D01*
X126492500Y-76937500D02*
X126525000Y-76905000D01*
X122750000Y-76937500D02*
X126492500Y-76937500D01*
X128345000Y-76905000D02*
X128750000Y-76500000D01*
X126525000Y-76905000D02*
X128345000Y-76905000D01*
X146025000Y-66250000D02*
X147750000Y-66250000D01*
X141275000Y-61500000D02*
X146025000Y-66250000D01*
X123500000Y-67710000D02*
X123500000Y-64000000D01*
%TO.N,Net-(J2-Pad1)*%
X132450000Y-74365000D02*
X138045000Y-79960000D01*
X138045000Y-79960000D02*
X138540000Y-79960000D01*
X131475000Y-74365000D02*
X132450000Y-74365000D01*
X141750000Y-76750000D02*
X147750000Y-76750000D01*
X138540000Y-79960000D02*
X141750000Y-76750000D01*
%TO.N,Net-(RV1-Pad1)*%
X132450000Y-75635000D02*
X136000000Y-79185000D01*
X136000000Y-79185000D02*
X136000000Y-82500000D01*
X131475000Y-75635000D02*
X132450000Y-75635000D01*
%TO.N,Net-(C5-Pad2)*%
X126625000Y-69725000D02*
X126650000Y-69750000D01*
X126625000Y-66000000D02*
X126625000Y-69725000D01*
X126110000Y-70290000D02*
X126650000Y-69750000D01*
X123500000Y-70290000D02*
X126110000Y-70290000D01*
X123500000Y-71893544D02*
X125971456Y-74365000D01*
X125971456Y-74365000D02*
X126525000Y-74365000D01*
X123500000Y-70290000D02*
X123500000Y-71893544D01*
%TO.N,Net-(C5-Pad1)*%
X129750000Y-66000000D02*
X129750000Y-69750000D01*
X126525000Y-72975000D02*
X129750000Y-69750000D01*
X126525000Y-73095000D02*
X126525000Y-72975000D01*
X130888544Y-76905000D02*
X131475000Y-76905000D01*
X127078544Y-73095000D02*
X130888544Y-76905000D01*
X126525000Y-73095000D02*
X127078544Y-73095000D01*
%TO.N,Net-(D1-Pad2)*%
X144250000Y-56500000D02*
X147750000Y-56500000D01*
%TO.N,Net-(D2-Pad1)*%
X147670000Y-61500000D02*
X147750000Y-61580000D01*
X144250000Y-61500000D02*
X147670000Y-61500000D01*
%TD*%
M02*
