%TF.GenerationSoftware,KiCad,Pcbnew,5.1.10-88a1d61d58~90~ubuntu20.04.1*%
%TF.CreationDate,2021-10-29T09:56:54+11:00*%
%TF.ProjectId,simple-photodetector,73696d70-6c65-42d7-9068-6f746f646574,rev?*%
%TF.SameCoordinates,Original*%
%TF.FileFunction,Legend,Top*%
%TF.FilePolarity,Positive*%
%FSLAX46Y46*%
G04 Gerber Fmt 4.6, Leading zero omitted, Abs format (unit mm)*
G04 Created by KiCad (PCBNEW 5.1.10-88a1d61d58~90~ubuntu20.04.1) date 2021-10-29 09:56:54*
%MOMM*%
%LPD*%
G01*
G04 APERTURE LIST*
%ADD10C,0.150000*%
%ADD11C,0.120000*%
G04 APERTURE END LIST*
D10*
X142088095Y-59671428D02*
X142850000Y-59671428D01*
X143850000Y-60052380D02*
X143278571Y-60052380D01*
X143564285Y-60052380D02*
X143564285Y-59052380D01*
X143469047Y-59195238D01*
X143373809Y-59290476D01*
X143278571Y-59338095D01*
X144754761Y-59052380D02*
X144278571Y-59052380D01*
X144230952Y-59528571D01*
X144278571Y-59480952D01*
X144373809Y-59433333D01*
X144611904Y-59433333D01*
X144707142Y-59480952D01*
X144754761Y-59528571D01*
X144802380Y-59623809D01*
X144802380Y-59861904D01*
X144754761Y-59957142D01*
X144707142Y-60004761D01*
X144611904Y-60052380D01*
X144373809Y-60052380D01*
X144278571Y-60004761D01*
X144230952Y-59957142D01*
X145088095Y-59052380D02*
X145421428Y-60052380D01*
X145754761Y-59052380D01*
X142238095Y-54571428D02*
X143000000Y-54571428D01*
X142619047Y-54952380D02*
X142619047Y-54190476D01*
X144000000Y-54952380D02*
X143428571Y-54952380D01*
X143714285Y-54952380D02*
X143714285Y-53952380D01*
X143619047Y-54095238D01*
X143523809Y-54190476D01*
X143428571Y-54238095D01*
X144904761Y-53952380D02*
X144428571Y-53952380D01*
X144380952Y-54428571D01*
X144428571Y-54380952D01*
X144523809Y-54333333D01*
X144761904Y-54333333D01*
X144857142Y-54380952D01*
X144904761Y-54428571D01*
X144952380Y-54523809D01*
X144952380Y-54761904D01*
X144904761Y-54857142D01*
X144857142Y-54904761D01*
X144761904Y-54952380D01*
X144523809Y-54952380D01*
X144428571Y-54904761D01*
X144380952Y-54857142D01*
X145238095Y-53952380D02*
X145571428Y-54952380D01*
X145904761Y-53952380D01*
D11*
%TO.C,RV1*%
X135065000Y-82005000D02*
X135065000Y-78900000D01*
X135065000Y-83640000D02*
X135065000Y-82995000D01*
X142015000Y-82005000D02*
X142015000Y-78900000D01*
X142015000Y-83640000D02*
X142015000Y-82995000D01*
X142015000Y-78900000D02*
X135065000Y-78900000D01*
X142015000Y-83640000D02*
X135065000Y-83640000D01*
%TO.C,C1*%
X132475000Y-54195225D02*
X131975000Y-54195225D01*
X132225000Y-53945225D02*
X132225000Y-54445225D01*
X131034000Y-59351000D02*
X130466000Y-59351000D01*
X131268000Y-59311000D02*
X130232000Y-59311000D01*
X131427000Y-59271000D02*
X130073000Y-59271000D01*
X131555000Y-59231000D02*
X129945000Y-59231000D01*
X131665000Y-59191000D02*
X129835000Y-59191000D01*
X131761000Y-59151000D02*
X129739000Y-59151000D01*
X131848000Y-59111000D02*
X129652000Y-59111000D01*
X131928000Y-59071000D02*
X129572000Y-59071000D01*
X132001000Y-59031000D02*
X129499000Y-59031000D01*
X132069000Y-58991000D02*
X129431000Y-58991000D01*
X132133000Y-58951000D02*
X129367000Y-58951000D01*
X132193000Y-58911000D02*
X129307000Y-58911000D01*
X132250000Y-58871000D02*
X129250000Y-58871000D01*
X132304000Y-58831000D02*
X129196000Y-58831000D01*
X132355000Y-58791000D02*
X129145000Y-58791000D01*
X129710000Y-58751000D02*
X129097000Y-58751000D01*
X132403000Y-58751000D02*
X131790000Y-58751000D01*
X129710000Y-58711000D02*
X129051000Y-58711000D01*
X132449000Y-58711000D02*
X131790000Y-58711000D01*
X129710000Y-58671000D02*
X129007000Y-58671000D01*
X132493000Y-58671000D02*
X131790000Y-58671000D01*
X129710000Y-58631000D02*
X128965000Y-58631000D01*
X132535000Y-58631000D02*
X131790000Y-58631000D01*
X129710000Y-58591000D02*
X128924000Y-58591000D01*
X132576000Y-58591000D02*
X131790000Y-58591000D01*
X129710000Y-58551000D02*
X128886000Y-58551000D01*
X132614000Y-58551000D02*
X131790000Y-58551000D01*
X129710000Y-58511000D02*
X128849000Y-58511000D01*
X132651000Y-58511000D02*
X131790000Y-58511000D01*
X129710000Y-58471000D02*
X128813000Y-58471000D01*
X132687000Y-58471000D02*
X131790000Y-58471000D01*
X129710000Y-58431000D02*
X128779000Y-58431000D01*
X132721000Y-58431000D02*
X131790000Y-58431000D01*
X129710000Y-58391000D02*
X128746000Y-58391000D01*
X132754000Y-58391000D02*
X131790000Y-58391000D01*
X129710000Y-58351000D02*
X128715000Y-58351000D01*
X132785000Y-58351000D02*
X131790000Y-58351000D01*
X129710000Y-58311000D02*
X128685000Y-58311000D01*
X132815000Y-58311000D02*
X131790000Y-58311000D01*
X129710000Y-58271000D02*
X128655000Y-58271000D01*
X132845000Y-58271000D02*
X131790000Y-58271000D01*
X129710000Y-58231000D02*
X128628000Y-58231000D01*
X132872000Y-58231000D02*
X131790000Y-58231000D01*
X129710000Y-58191000D02*
X128601000Y-58191000D01*
X132899000Y-58191000D02*
X131790000Y-58191000D01*
X129710000Y-58151000D02*
X128575000Y-58151000D01*
X132925000Y-58151000D02*
X131790000Y-58151000D01*
X129710000Y-58111000D02*
X128550000Y-58111000D01*
X132950000Y-58111000D02*
X131790000Y-58111000D01*
X129710000Y-58071000D02*
X128526000Y-58071000D01*
X132974000Y-58071000D02*
X131790000Y-58071000D01*
X129710000Y-58031000D02*
X128503000Y-58031000D01*
X132997000Y-58031000D02*
X131790000Y-58031000D01*
X129710000Y-57991000D02*
X128482000Y-57991000D01*
X133018000Y-57991000D02*
X131790000Y-57991000D01*
X129710000Y-57951000D02*
X128460000Y-57951000D01*
X133040000Y-57951000D02*
X131790000Y-57951000D01*
X129710000Y-57911000D02*
X128440000Y-57911000D01*
X133060000Y-57911000D02*
X131790000Y-57911000D01*
X129710000Y-57871000D02*
X128421000Y-57871000D01*
X133079000Y-57871000D02*
X131790000Y-57871000D01*
X129710000Y-57831000D02*
X128402000Y-57831000D01*
X133098000Y-57831000D02*
X131790000Y-57831000D01*
X129710000Y-57791000D02*
X128385000Y-57791000D01*
X133115000Y-57791000D02*
X131790000Y-57791000D01*
X129710000Y-57751000D02*
X128368000Y-57751000D01*
X133132000Y-57751000D02*
X131790000Y-57751000D01*
X129710000Y-57711000D02*
X128352000Y-57711000D01*
X133148000Y-57711000D02*
X131790000Y-57711000D01*
X129710000Y-57671000D02*
X128336000Y-57671000D01*
X133164000Y-57671000D02*
X131790000Y-57671000D01*
X129710000Y-57631000D02*
X128322000Y-57631000D01*
X133178000Y-57631000D02*
X131790000Y-57631000D01*
X129710000Y-57591000D02*
X128308000Y-57591000D01*
X133192000Y-57591000D02*
X131790000Y-57591000D01*
X129710000Y-57551000D02*
X128295000Y-57551000D01*
X133205000Y-57551000D02*
X131790000Y-57551000D01*
X129710000Y-57511000D02*
X128282000Y-57511000D01*
X133218000Y-57511000D02*
X131790000Y-57511000D01*
X129710000Y-57471000D02*
X128270000Y-57471000D01*
X133230000Y-57471000D02*
X131790000Y-57471000D01*
X129710000Y-57430000D02*
X128259000Y-57430000D01*
X133241000Y-57430000D02*
X131790000Y-57430000D01*
X129710000Y-57390000D02*
X128249000Y-57390000D01*
X133251000Y-57390000D02*
X131790000Y-57390000D01*
X129710000Y-57350000D02*
X128239000Y-57350000D01*
X133261000Y-57350000D02*
X131790000Y-57350000D01*
X129710000Y-57310000D02*
X128230000Y-57310000D01*
X133270000Y-57310000D02*
X131790000Y-57310000D01*
X129710000Y-57270000D02*
X128222000Y-57270000D01*
X133278000Y-57270000D02*
X131790000Y-57270000D01*
X129710000Y-57230000D02*
X128214000Y-57230000D01*
X133286000Y-57230000D02*
X131790000Y-57230000D01*
X129710000Y-57190000D02*
X128207000Y-57190000D01*
X133293000Y-57190000D02*
X131790000Y-57190000D01*
X129710000Y-57150000D02*
X128200000Y-57150000D01*
X133300000Y-57150000D02*
X131790000Y-57150000D01*
X129710000Y-57110000D02*
X128194000Y-57110000D01*
X133306000Y-57110000D02*
X131790000Y-57110000D01*
X129710000Y-57070000D02*
X128189000Y-57070000D01*
X133311000Y-57070000D02*
X131790000Y-57070000D01*
X129710000Y-57030000D02*
X128185000Y-57030000D01*
X133315000Y-57030000D02*
X131790000Y-57030000D01*
X129710000Y-56990000D02*
X128181000Y-56990000D01*
X133319000Y-56990000D02*
X131790000Y-56990000D01*
X129710000Y-56950000D02*
X128177000Y-56950000D01*
X133323000Y-56950000D02*
X131790000Y-56950000D01*
X129710000Y-56910000D02*
X128174000Y-56910000D01*
X133326000Y-56910000D02*
X131790000Y-56910000D01*
X129710000Y-56870000D02*
X128172000Y-56870000D01*
X133328000Y-56870000D02*
X131790000Y-56870000D01*
X129710000Y-56830000D02*
X128171000Y-56830000D01*
X133329000Y-56830000D02*
X131790000Y-56830000D01*
X133330000Y-56790000D02*
X131790000Y-56790000D01*
X129710000Y-56790000D02*
X128170000Y-56790000D01*
X133330000Y-56750000D02*
X131790000Y-56750000D01*
X129710000Y-56750000D02*
X128170000Y-56750000D01*
X133370000Y-56750000D02*
G75*
G03*
X133370000Y-56750000I-2620000J0D01*
G01*
%TO.C,C2*%
X151370000Y-66250000D02*
G75*
G03*
X151370000Y-66250000I-2620000J0D01*
G01*
X148750000Y-65210000D02*
X148750000Y-63670000D01*
X148750000Y-68830000D02*
X148750000Y-67290000D01*
X148710000Y-65210000D02*
X148710000Y-63670000D01*
X148710000Y-68830000D02*
X148710000Y-67290000D01*
X148670000Y-68829000D02*
X148670000Y-67290000D01*
X148670000Y-65210000D02*
X148670000Y-63671000D01*
X148630000Y-68828000D02*
X148630000Y-67290000D01*
X148630000Y-65210000D02*
X148630000Y-63672000D01*
X148590000Y-68826000D02*
X148590000Y-67290000D01*
X148590000Y-65210000D02*
X148590000Y-63674000D01*
X148550000Y-68823000D02*
X148550000Y-67290000D01*
X148550000Y-65210000D02*
X148550000Y-63677000D01*
X148510000Y-68819000D02*
X148510000Y-67290000D01*
X148510000Y-65210000D02*
X148510000Y-63681000D01*
X148470000Y-68815000D02*
X148470000Y-67290000D01*
X148470000Y-65210000D02*
X148470000Y-63685000D01*
X148430000Y-68811000D02*
X148430000Y-67290000D01*
X148430000Y-65210000D02*
X148430000Y-63689000D01*
X148390000Y-68806000D02*
X148390000Y-67290000D01*
X148390000Y-65210000D02*
X148390000Y-63694000D01*
X148350000Y-68800000D02*
X148350000Y-67290000D01*
X148350000Y-65210000D02*
X148350000Y-63700000D01*
X148310000Y-68793000D02*
X148310000Y-67290000D01*
X148310000Y-65210000D02*
X148310000Y-63707000D01*
X148270000Y-68786000D02*
X148270000Y-67290000D01*
X148270000Y-65210000D02*
X148270000Y-63714000D01*
X148230000Y-68778000D02*
X148230000Y-67290000D01*
X148230000Y-65210000D02*
X148230000Y-63722000D01*
X148190000Y-68770000D02*
X148190000Y-67290000D01*
X148190000Y-65210000D02*
X148190000Y-63730000D01*
X148150000Y-68761000D02*
X148150000Y-67290000D01*
X148150000Y-65210000D02*
X148150000Y-63739000D01*
X148110000Y-68751000D02*
X148110000Y-67290000D01*
X148110000Y-65210000D02*
X148110000Y-63749000D01*
X148070000Y-68741000D02*
X148070000Y-67290000D01*
X148070000Y-65210000D02*
X148070000Y-63759000D01*
X148029000Y-68730000D02*
X148029000Y-67290000D01*
X148029000Y-65210000D02*
X148029000Y-63770000D01*
X147989000Y-68718000D02*
X147989000Y-67290000D01*
X147989000Y-65210000D02*
X147989000Y-63782000D01*
X147949000Y-68705000D02*
X147949000Y-67290000D01*
X147949000Y-65210000D02*
X147949000Y-63795000D01*
X147909000Y-68692000D02*
X147909000Y-67290000D01*
X147909000Y-65210000D02*
X147909000Y-63808000D01*
X147869000Y-68678000D02*
X147869000Y-67290000D01*
X147869000Y-65210000D02*
X147869000Y-63822000D01*
X147829000Y-68664000D02*
X147829000Y-67290000D01*
X147829000Y-65210000D02*
X147829000Y-63836000D01*
X147789000Y-68648000D02*
X147789000Y-67290000D01*
X147789000Y-65210000D02*
X147789000Y-63852000D01*
X147749000Y-68632000D02*
X147749000Y-67290000D01*
X147749000Y-65210000D02*
X147749000Y-63868000D01*
X147709000Y-68615000D02*
X147709000Y-67290000D01*
X147709000Y-65210000D02*
X147709000Y-63885000D01*
X147669000Y-68598000D02*
X147669000Y-67290000D01*
X147669000Y-65210000D02*
X147669000Y-63902000D01*
X147629000Y-68579000D02*
X147629000Y-67290000D01*
X147629000Y-65210000D02*
X147629000Y-63921000D01*
X147589000Y-68560000D02*
X147589000Y-67290000D01*
X147589000Y-65210000D02*
X147589000Y-63940000D01*
X147549000Y-68540000D02*
X147549000Y-67290000D01*
X147549000Y-65210000D02*
X147549000Y-63960000D01*
X147509000Y-68518000D02*
X147509000Y-67290000D01*
X147509000Y-65210000D02*
X147509000Y-63982000D01*
X147469000Y-68497000D02*
X147469000Y-67290000D01*
X147469000Y-65210000D02*
X147469000Y-64003000D01*
X147429000Y-68474000D02*
X147429000Y-67290000D01*
X147429000Y-65210000D02*
X147429000Y-64026000D01*
X147389000Y-68450000D02*
X147389000Y-67290000D01*
X147389000Y-65210000D02*
X147389000Y-64050000D01*
X147349000Y-68425000D02*
X147349000Y-67290000D01*
X147349000Y-65210000D02*
X147349000Y-64075000D01*
X147309000Y-68399000D02*
X147309000Y-67290000D01*
X147309000Y-65210000D02*
X147309000Y-64101000D01*
X147269000Y-68372000D02*
X147269000Y-67290000D01*
X147269000Y-65210000D02*
X147269000Y-64128000D01*
X147229000Y-68345000D02*
X147229000Y-67290000D01*
X147229000Y-65210000D02*
X147229000Y-64155000D01*
X147189000Y-68315000D02*
X147189000Y-67290000D01*
X147189000Y-65210000D02*
X147189000Y-64185000D01*
X147149000Y-68285000D02*
X147149000Y-67290000D01*
X147149000Y-65210000D02*
X147149000Y-64215000D01*
X147109000Y-68254000D02*
X147109000Y-67290000D01*
X147109000Y-65210000D02*
X147109000Y-64246000D01*
X147069000Y-68221000D02*
X147069000Y-67290000D01*
X147069000Y-65210000D02*
X147069000Y-64279000D01*
X147029000Y-68187000D02*
X147029000Y-67290000D01*
X147029000Y-65210000D02*
X147029000Y-64313000D01*
X146989000Y-68151000D02*
X146989000Y-67290000D01*
X146989000Y-65210000D02*
X146989000Y-64349000D01*
X146949000Y-68114000D02*
X146949000Y-67290000D01*
X146949000Y-65210000D02*
X146949000Y-64386000D01*
X146909000Y-68076000D02*
X146909000Y-67290000D01*
X146909000Y-65210000D02*
X146909000Y-64424000D01*
X146869000Y-68035000D02*
X146869000Y-67290000D01*
X146869000Y-65210000D02*
X146869000Y-64465000D01*
X146829000Y-67993000D02*
X146829000Y-67290000D01*
X146829000Y-65210000D02*
X146829000Y-64507000D01*
X146789000Y-67949000D02*
X146789000Y-67290000D01*
X146789000Y-65210000D02*
X146789000Y-64551000D01*
X146749000Y-67903000D02*
X146749000Y-67290000D01*
X146749000Y-65210000D02*
X146749000Y-64597000D01*
X146709000Y-67855000D02*
X146709000Y-64645000D01*
X146669000Y-67804000D02*
X146669000Y-64696000D01*
X146629000Y-67750000D02*
X146629000Y-64750000D01*
X146589000Y-67693000D02*
X146589000Y-64807000D01*
X146549000Y-67633000D02*
X146549000Y-64867000D01*
X146509000Y-67569000D02*
X146509000Y-64931000D01*
X146469000Y-67501000D02*
X146469000Y-64999000D01*
X146429000Y-67428000D02*
X146429000Y-65072000D01*
X146389000Y-67348000D02*
X146389000Y-65152000D01*
X146349000Y-67261000D02*
X146349000Y-65239000D01*
X146309000Y-67165000D02*
X146309000Y-65335000D01*
X146269000Y-67055000D02*
X146269000Y-65445000D01*
X146229000Y-66927000D02*
X146229000Y-65573000D01*
X146189000Y-66768000D02*
X146189000Y-65732000D01*
X146149000Y-66534000D02*
X146149000Y-65966000D01*
X151554775Y-67725000D02*
X151054775Y-67725000D01*
X151304775Y-67975000D02*
X151304775Y-67475000D01*
%TO.C,C3*%
X138725000Y-54195225D02*
X138225000Y-54195225D01*
X138475000Y-53945225D02*
X138475000Y-54445225D01*
X137284000Y-59351000D02*
X136716000Y-59351000D01*
X137518000Y-59311000D02*
X136482000Y-59311000D01*
X137677000Y-59271000D02*
X136323000Y-59271000D01*
X137805000Y-59231000D02*
X136195000Y-59231000D01*
X137915000Y-59191000D02*
X136085000Y-59191000D01*
X138011000Y-59151000D02*
X135989000Y-59151000D01*
X138098000Y-59111000D02*
X135902000Y-59111000D01*
X138178000Y-59071000D02*
X135822000Y-59071000D01*
X138251000Y-59031000D02*
X135749000Y-59031000D01*
X138319000Y-58991000D02*
X135681000Y-58991000D01*
X138383000Y-58951000D02*
X135617000Y-58951000D01*
X138443000Y-58911000D02*
X135557000Y-58911000D01*
X138500000Y-58871000D02*
X135500000Y-58871000D01*
X138554000Y-58831000D02*
X135446000Y-58831000D01*
X138605000Y-58791000D02*
X135395000Y-58791000D01*
X135960000Y-58751000D02*
X135347000Y-58751000D01*
X138653000Y-58751000D02*
X138040000Y-58751000D01*
X135960000Y-58711000D02*
X135301000Y-58711000D01*
X138699000Y-58711000D02*
X138040000Y-58711000D01*
X135960000Y-58671000D02*
X135257000Y-58671000D01*
X138743000Y-58671000D02*
X138040000Y-58671000D01*
X135960000Y-58631000D02*
X135215000Y-58631000D01*
X138785000Y-58631000D02*
X138040000Y-58631000D01*
X135960000Y-58591000D02*
X135174000Y-58591000D01*
X138826000Y-58591000D02*
X138040000Y-58591000D01*
X135960000Y-58551000D02*
X135136000Y-58551000D01*
X138864000Y-58551000D02*
X138040000Y-58551000D01*
X135960000Y-58511000D02*
X135099000Y-58511000D01*
X138901000Y-58511000D02*
X138040000Y-58511000D01*
X135960000Y-58471000D02*
X135063000Y-58471000D01*
X138937000Y-58471000D02*
X138040000Y-58471000D01*
X135960000Y-58431000D02*
X135029000Y-58431000D01*
X138971000Y-58431000D02*
X138040000Y-58431000D01*
X135960000Y-58391000D02*
X134996000Y-58391000D01*
X139004000Y-58391000D02*
X138040000Y-58391000D01*
X135960000Y-58351000D02*
X134965000Y-58351000D01*
X139035000Y-58351000D02*
X138040000Y-58351000D01*
X135960000Y-58311000D02*
X134935000Y-58311000D01*
X139065000Y-58311000D02*
X138040000Y-58311000D01*
X135960000Y-58271000D02*
X134905000Y-58271000D01*
X139095000Y-58271000D02*
X138040000Y-58271000D01*
X135960000Y-58231000D02*
X134878000Y-58231000D01*
X139122000Y-58231000D02*
X138040000Y-58231000D01*
X135960000Y-58191000D02*
X134851000Y-58191000D01*
X139149000Y-58191000D02*
X138040000Y-58191000D01*
X135960000Y-58151000D02*
X134825000Y-58151000D01*
X139175000Y-58151000D02*
X138040000Y-58151000D01*
X135960000Y-58111000D02*
X134800000Y-58111000D01*
X139200000Y-58111000D02*
X138040000Y-58111000D01*
X135960000Y-58071000D02*
X134776000Y-58071000D01*
X139224000Y-58071000D02*
X138040000Y-58071000D01*
X135960000Y-58031000D02*
X134753000Y-58031000D01*
X139247000Y-58031000D02*
X138040000Y-58031000D01*
X135960000Y-57991000D02*
X134732000Y-57991000D01*
X139268000Y-57991000D02*
X138040000Y-57991000D01*
X135960000Y-57951000D02*
X134710000Y-57951000D01*
X139290000Y-57951000D02*
X138040000Y-57951000D01*
X135960000Y-57911000D02*
X134690000Y-57911000D01*
X139310000Y-57911000D02*
X138040000Y-57911000D01*
X135960000Y-57871000D02*
X134671000Y-57871000D01*
X139329000Y-57871000D02*
X138040000Y-57871000D01*
X135960000Y-57831000D02*
X134652000Y-57831000D01*
X139348000Y-57831000D02*
X138040000Y-57831000D01*
X135960000Y-57791000D02*
X134635000Y-57791000D01*
X139365000Y-57791000D02*
X138040000Y-57791000D01*
X135960000Y-57751000D02*
X134618000Y-57751000D01*
X139382000Y-57751000D02*
X138040000Y-57751000D01*
X135960000Y-57711000D02*
X134602000Y-57711000D01*
X139398000Y-57711000D02*
X138040000Y-57711000D01*
X135960000Y-57671000D02*
X134586000Y-57671000D01*
X139414000Y-57671000D02*
X138040000Y-57671000D01*
X135960000Y-57631000D02*
X134572000Y-57631000D01*
X139428000Y-57631000D02*
X138040000Y-57631000D01*
X135960000Y-57591000D02*
X134558000Y-57591000D01*
X139442000Y-57591000D02*
X138040000Y-57591000D01*
X135960000Y-57551000D02*
X134545000Y-57551000D01*
X139455000Y-57551000D02*
X138040000Y-57551000D01*
X135960000Y-57511000D02*
X134532000Y-57511000D01*
X139468000Y-57511000D02*
X138040000Y-57511000D01*
X135960000Y-57471000D02*
X134520000Y-57471000D01*
X139480000Y-57471000D02*
X138040000Y-57471000D01*
X135960000Y-57430000D02*
X134509000Y-57430000D01*
X139491000Y-57430000D02*
X138040000Y-57430000D01*
X135960000Y-57390000D02*
X134499000Y-57390000D01*
X139501000Y-57390000D02*
X138040000Y-57390000D01*
X135960000Y-57350000D02*
X134489000Y-57350000D01*
X139511000Y-57350000D02*
X138040000Y-57350000D01*
X135960000Y-57310000D02*
X134480000Y-57310000D01*
X139520000Y-57310000D02*
X138040000Y-57310000D01*
X135960000Y-57270000D02*
X134472000Y-57270000D01*
X139528000Y-57270000D02*
X138040000Y-57270000D01*
X135960000Y-57230000D02*
X134464000Y-57230000D01*
X139536000Y-57230000D02*
X138040000Y-57230000D01*
X135960000Y-57190000D02*
X134457000Y-57190000D01*
X139543000Y-57190000D02*
X138040000Y-57190000D01*
X135960000Y-57150000D02*
X134450000Y-57150000D01*
X139550000Y-57150000D02*
X138040000Y-57150000D01*
X135960000Y-57110000D02*
X134444000Y-57110000D01*
X139556000Y-57110000D02*
X138040000Y-57110000D01*
X135960000Y-57070000D02*
X134439000Y-57070000D01*
X139561000Y-57070000D02*
X138040000Y-57070000D01*
X135960000Y-57030000D02*
X134435000Y-57030000D01*
X139565000Y-57030000D02*
X138040000Y-57030000D01*
X135960000Y-56990000D02*
X134431000Y-56990000D01*
X139569000Y-56990000D02*
X138040000Y-56990000D01*
X135960000Y-56950000D02*
X134427000Y-56950000D01*
X139573000Y-56950000D02*
X138040000Y-56950000D01*
X135960000Y-56910000D02*
X134424000Y-56910000D01*
X139576000Y-56910000D02*
X138040000Y-56910000D01*
X135960000Y-56870000D02*
X134422000Y-56870000D01*
X139578000Y-56870000D02*
X138040000Y-56870000D01*
X135960000Y-56830000D02*
X134421000Y-56830000D01*
X139579000Y-56830000D02*
X138040000Y-56830000D01*
X139580000Y-56790000D02*
X138040000Y-56790000D01*
X135960000Y-56790000D02*
X134420000Y-56790000D01*
X139580000Y-56750000D02*
X138040000Y-56750000D01*
X135960000Y-56750000D02*
X134420000Y-56750000D01*
X139620000Y-56750000D02*
G75*
G03*
X139620000Y-56750000I-2620000J0D01*
G01*
%TO.C,C4*%
X124410000Y-63148752D02*
X124410000Y-61726248D01*
X122590000Y-63148752D02*
X122590000Y-61726248D01*
%TO.C,C5*%
X128898752Y-66910000D02*
X127476248Y-66910000D01*
X128898752Y-65090000D02*
X127476248Y-65090000D01*
%TO.C,C6*%
X137773752Y-74340000D02*
X136351248Y-74340000D01*
X137773752Y-76160000D02*
X136351248Y-76160000D01*
%TO.C,C7*%
X121840000Y-79211252D02*
X121840000Y-77788748D01*
X123660000Y-79211252D02*
X123660000Y-77788748D01*
%TO.C,D1*%
X140302500Y-57635000D02*
X144362500Y-57635000D01*
X140302500Y-55365000D02*
X140302500Y-57635000D01*
X144362500Y-55365000D02*
X140302500Y-55365000D01*
%TO.C,D2*%
X141162500Y-62635000D02*
X145222500Y-62635000D01*
X145222500Y-62635000D02*
X145222500Y-60365000D01*
X145222500Y-60365000D02*
X141162500Y-60365000D01*
%TO.C,R1*%
X128927064Y-68840000D02*
X127472936Y-68840000D01*
X128927064Y-70660000D02*
X127472936Y-70660000D01*
%TO.C,U1*%
X129000000Y-72440000D02*
X125550000Y-72440000D01*
X129000000Y-72440000D02*
X130950000Y-72440000D01*
X129000000Y-77560000D02*
X127050000Y-77560000D01*
X129000000Y-77560000D02*
X130950000Y-77560000D01*
%TO.C,J1*%
X146480000Y-55230000D02*
X147750000Y-55230000D01*
X146480000Y-56500000D02*
X146480000Y-55230000D01*
X148792929Y-61960000D02*
X149190000Y-61960000D01*
X148792929Y-61200000D02*
X149190000Y-61200000D01*
X157850000Y-61960000D02*
X151850000Y-61960000D01*
X157850000Y-61200000D02*
X157850000Y-61960000D01*
X151850000Y-61200000D02*
X157850000Y-61200000D01*
X149190000Y-60310000D02*
X151850000Y-60310000D01*
X148792929Y-59420000D02*
X149190000Y-59420000D01*
X148792929Y-58660000D02*
X149190000Y-58660000D01*
X157850000Y-59420000D02*
X151850000Y-59420000D01*
X157850000Y-58660000D02*
X157850000Y-59420000D01*
X151850000Y-58660000D02*
X157850000Y-58660000D01*
X149190000Y-57770000D02*
X151850000Y-57770000D01*
X148860000Y-56880000D02*
X149190000Y-56880000D01*
X148860000Y-56120000D02*
X149190000Y-56120000D01*
X151850000Y-56780000D02*
X157850000Y-56780000D01*
X151850000Y-56660000D02*
X157850000Y-56660000D01*
X151850000Y-56540000D02*
X157850000Y-56540000D01*
X151850000Y-56420000D02*
X157850000Y-56420000D01*
X151850000Y-56300000D02*
X157850000Y-56300000D01*
X151850000Y-56180000D02*
X157850000Y-56180000D01*
X157850000Y-56880000D02*
X151850000Y-56880000D01*
X157850000Y-56120000D02*
X157850000Y-56880000D01*
X151850000Y-56120000D02*
X157850000Y-56120000D01*
X151850000Y-55170000D02*
X149190000Y-55170000D01*
X151850000Y-62910000D02*
X151850000Y-55170000D01*
X149190000Y-62910000D02*
X151850000Y-62910000D01*
X149190000Y-55170000D02*
X149190000Y-62910000D01*
%TO.C,J2*%
X151900000Y-72600000D02*
X143600000Y-72600000D01*
X151900000Y-80900000D02*
X143600000Y-80900000D01*
X143600000Y-72600000D02*
X143600000Y-80900000D01*
X151900000Y-72600000D02*
X151900000Y-80900000D01*
%TO.C,D3*%
X124468866Y-68803850D02*
G75*
G03*
X122600000Y-68863239I-968866J1053850D01*
G01*
%TO.C,RV1*%
D10*
X132904761Y-81452380D02*
X132571428Y-80976190D01*
X132333333Y-81452380D02*
X132333333Y-80452380D01*
X132714285Y-80452380D01*
X132809523Y-80500000D01*
X132857142Y-80547619D01*
X132904761Y-80642857D01*
X132904761Y-80785714D01*
X132857142Y-80880952D01*
X132809523Y-80928571D01*
X132714285Y-80976190D01*
X132333333Y-80976190D01*
X133190476Y-80452380D02*
X133523809Y-81452380D01*
X133857142Y-80452380D01*
X134714285Y-81452380D02*
X134142857Y-81452380D01*
X134428571Y-81452380D02*
X134428571Y-80452380D01*
X134333333Y-80595238D01*
X134238095Y-80690476D01*
X134142857Y-80738095D01*
%TO.C,C1*%
X130583333Y-60857142D02*
X130535714Y-60904761D01*
X130392857Y-60952380D01*
X130297619Y-60952380D01*
X130154761Y-60904761D01*
X130059523Y-60809523D01*
X130011904Y-60714285D01*
X129964285Y-60523809D01*
X129964285Y-60380952D01*
X130011904Y-60190476D01*
X130059523Y-60095238D01*
X130154761Y-60000000D01*
X130297619Y-59952380D01*
X130392857Y-59952380D01*
X130535714Y-60000000D01*
X130583333Y-60047619D01*
X131535714Y-60952380D02*
X130964285Y-60952380D01*
X131250000Y-60952380D02*
X131250000Y-59952380D01*
X131154761Y-60095238D01*
X131059523Y-60190476D01*
X130964285Y-60238095D01*
%TO.C,C2*%
X150333333Y-69857142D02*
X150285714Y-69904761D01*
X150142857Y-69952380D01*
X150047619Y-69952380D01*
X149904761Y-69904761D01*
X149809523Y-69809523D01*
X149761904Y-69714285D01*
X149714285Y-69523809D01*
X149714285Y-69380952D01*
X149761904Y-69190476D01*
X149809523Y-69095238D01*
X149904761Y-69000000D01*
X150047619Y-68952380D01*
X150142857Y-68952380D01*
X150285714Y-69000000D01*
X150333333Y-69047619D01*
X150714285Y-69047619D02*
X150761904Y-69000000D01*
X150857142Y-68952380D01*
X151095238Y-68952380D01*
X151190476Y-69000000D01*
X151238095Y-69047619D01*
X151285714Y-69142857D01*
X151285714Y-69238095D01*
X151238095Y-69380952D01*
X150666666Y-69952380D01*
X151285714Y-69952380D01*
%TO.C,C3*%
X136833333Y-60857142D02*
X136785714Y-60904761D01*
X136642857Y-60952380D01*
X136547619Y-60952380D01*
X136404761Y-60904761D01*
X136309523Y-60809523D01*
X136261904Y-60714285D01*
X136214285Y-60523809D01*
X136214285Y-60380952D01*
X136261904Y-60190476D01*
X136309523Y-60095238D01*
X136404761Y-60000000D01*
X136547619Y-59952380D01*
X136642857Y-59952380D01*
X136785714Y-60000000D01*
X136833333Y-60047619D01*
X137166666Y-59952380D02*
X137785714Y-59952380D01*
X137452380Y-60333333D01*
X137595238Y-60333333D01*
X137690476Y-60380952D01*
X137738095Y-60428571D01*
X137785714Y-60523809D01*
X137785714Y-60761904D01*
X137738095Y-60857142D01*
X137690476Y-60904761D01*
X137595238Y-60952380D01*
X137309523Y-60952380D01*
X137214285Y-60904761D01*
X137166666Y-60857142D01*
%TO.C,C4*%
X125333333Y-63607142D02*
X125285714Y-63654761D01*
X125142857Y-63702380D01*
X125047619Y-63702380D01*
X124904761Y-63654761D01*
X124809523Y-63559523D01*
X124761904Y-63464285D01*
X124714285Y-63273809D01*
X124714285Y-63130952D01*
X124761904Y-62940476D01*
X124809523Y-62845238D01*
X124904761Y-62750000D01*
X125047619Y-62702380D01*
X125142857Y-62702380D01*
X125285714Y-62750000D01*
X125333333Y-62797619D01*
X126190476Y-63035714D02*
X126190476Y-63702380D01*
X125952380Y-62654761D02*
X125714285Y-63369047D01*
X126333333Y-63369047D01*
%TO.C,C5*%
X128020833Y-68207142D02*
X127973214Y-68254761D01*
X127830357Y-68302380D01*
X127735119Y-68302380D01*
X127592261Y-68254761D01*
X127497023Y-68159523D01*
X127449404Y-68064285D01*
X127401785Y-67873809D01*
X127401785Y-67730952D01*
X127449404Y-67540476D01*
X127497023Y-67445238D01*
X127592261Y-67350000D01*
X127735119Y-67302380D01*
X127830357Y-67302380D01*
X127973214Y-67350000D01*
X128020833Y-67397619D01*
X128925595Y-67302380D02*
X128449404Y-67302380D01*
X128401785Y-67778571D01*
X128449404Y-67730952D01*
X128544642Y-67683333D01*
X128782738Y-67683333D01*
X128877976Y-67730952D01*
X128925595Y-67778571D01*
X128973214Y-67873809D01*
X128973214Y-68111904D01*
X128925595Y-68207142D01*
X128877976Y-68254761D01*
X128782738Y-68302380D01*
X128544642Y-68302380D01*
X128449404Y-68254761D01*
X128401785Y-68207142D01*
%TO.C,C6*%
X136895833Y-77457142D02*
X136848214Y-77504761D01*
X136705357Y-77552380D01*
X136610119Y-77552380D01*
X136467261Y-77504761D01*
X136372023Y-77409523D01*
X136324404Y-77314285D01*
X136276785Y-77123809D01*
X136276785Y-76980952D01*
X136324404Y-76790476D01*
X136372023Y-76695238D01*
X136467261Y-76600000D01*
X136610119Y-76552380D01*
X136705357Y-76552380D01*
X136848214Y-76600000D01*
X136895833Y-76647619D01*
X137752976Y-76552380D02*
X137562500Y-76552380D01*
X137467261Y-76600000D01*
X137419642Y-76647619D01*
X137324404Y-76790476D01*
X137276785Y-76980952D01*
X137276785Y-77361904D01*
X137324404Y-77457142D01*
X137372023Y-77504761D01*
X137467261Y-77552380D01*
X137657738Y-77552380D01*
X137752976Y-77504761D01*
X137800595Y-77457142D01*
X137848214Y-77361904D01*
X137848214Y-77123809D01*
X137800595Y-77028571D01*
X137752976Y-76980952D01*
X137657738Y-76933333D01*
X137467261Y-76933333D01*
X137372023Y-76980952D01*
X137324404Y-77028571D01*
X137276785Y-77123809D01*
%TO.C,C7*%
X124833333Y-81607142D02*
X124785714Y-81654761D01*
X124642857Y-81702380D01*
X124547619Y-81702380D01*
X124404761Y-81654761D01*
X124309523Y-81559523D01*
X124261904Y-81464285D01*
X124214285Y-81273809D01*
X124214285Y-81130952D01*
X124261904Y-80940476D01*
X124309523Y-80845238D01*
X124404761Y-80750000D01*
X124547619Y-80702380D01*
X124642857Y-80702380D01*
X124785714Y-80750000D01*
X124833333Y-80797619D01*
X125166666Y-80702380D02*
X125833333Y-80702380D01*
X125404761Y-81702380D01*
%TO.C,D1*%
X139361904Y-55127380D02*
X139361904Y-54127380D01*
X139600000Y-54127380D01*
X139742857Y-54175000D01*
X139838095Y-54270238D01*
X139885714Y-54365476D01*
X139933333Y-54555952D01*
X139933333Y-54698809D01*
X139885714Y-54889285D01*
X139838095Y-54984523D01*
X139742857Y-55079761D01*
X139600000Y-55127380D01*
X139361904Y-55127380D01*
X140885714Y-55127380D02*
X140314285Y-55127380D01*
X140600000Y-55127380D02*
X140600000Y-54127380D01*
X140504761Y-54270238D01*
X140409523Y-54365476D01*
X140314285Y-54413095D01*
%TO.C,D2*%
X140336904Y-63902380D02*
X140336904Y-62902380D01*
X140575000Y-62902380D01*
X140717857Y-62950000D01*
X140813095Y-63045238D01*
X140860714Y-63140476D01*
X140908333Y-63330952D01*
X140908333Y-63473809D01*
X140860714Y-63664285D01*
X140813095Y-63759523D01*
X140717857Y-63854761D01*
X140575000Y-63902380D01*
X140336904Y-63902380D01*
X141289285Y-62997619D02*
X141336904Y-62950000D01*
X141432142Y-62902380D01*
X141670238Y-62902380D01*
X141765476Y-62950000D01*
X141813095Y-62997619D01*
X141860714Y-63092857D01*
X141860714Y-63188095D01*
X141813095Y-63330952D01*
X141241666Y-63902380D01*
X141860714Y-63902380D01*
%TO.C,R1*%
X128033333Y-72022380D02*
X127700000Y-71546190D01*
X127461904Y-72022380D02*
X127461904Y-71022380D01*
X127842857Y-71022380D01*
X127938095Y-71070000D01*
X127985714Y-71117619D01*
X128033333Y-71212857D01*
X128033333Y-71355714D01*
X127985714Y-71450952D01*
X127938095Y-71498571D01*
X127842857Y-71546190D01*
X127461904Y-71546190D01*
X128985714Y-72022380D02*
X128414285Y-72022380D01*
X128700000Y-72022380D02*
X128700000Y-71022380D01*
X128604761Y-71165238D01*
X128509523Y-71260476D01*
X128414285Y-71308095D01*
%TO.C,U1*%
X128238095Y-77952380D02*
X128238095Y-78761904D01*
X128285714Y-78857142D01*
X128333333Y-78904761D01*
X128428571Y-78952380D01*
X128619047Y-78952380D01*
X128714285Y-78904761D01*
X128761904Y-78857142D01*
X128809523Y-78761904D01*
X128809523Y-77952380D01*
X129809523Y-78952380D02*
X129238095Y-78952380D01*
X129523809Y-78952380D02*
X129523809Y-77952380D01*
X129428571Y-78095238D01*
X129333333Y-78190476D01*
X129238095Y-78238095D01*
%TO.C,J1*%
X145416666Y-63452380D02*
X145416666Y-64166666D01*
X145369047Y-64309523D01*
X145273809Y-64404761D01*
X145130952Y-64452380D01*
X145035714Y-64452380D01*
X146416666Y-64452380D02*
X145845238Y-64452380D01*
X146130952Y-64452380D02*
X146130952Y-63452380D01*
X146035714Y-63595238D01*
X145940476Y-63690476D01*
X145845238Y-63738095D01*
%TO.C,J2*%
X147416666Y-81702380D02*
X147416666Y-82416666D01*
X147369047Y-82559523D01*
X147273809Y-82654761D01*
X147130952Y-82702380D01*
X147035714Y-82702380D01*
X147845238Y-81797619D02*
X147892857Y-81750000D01*
X147988095Y-81702380D01*
X148226190Y-81702380D01*
X148321428Y-81750000D01*
X148369047Y-81797619D01*
X148416666Y-81892857D01*
X148416666Y-81988095D01*
X148369047Y-82130952D01*
X147797619Y-82702380D01*
X148416666Y-82702380D01*
%TO.C,D3*%
X122761904Y-66202380D02*
X122761904Y-65202380D01*
X123000000Y-65202380D01*
X123142857Y-65250000D01*
X123238095Y-65345238D01*
X123285714Y-65440476D01*
X123333333Y-65630952D01*
X123333333Y-65773809D01*
X123285714Y-65964285D01*
X123238095Y-66059523D01*
X123142857Y-66154761D01*
X123000000Y-66202380D01*
X122761904Y-66202380D01*
X123666666Y-65202380D02*
X124285714Y-65202380D01*
X123952380Y-65583333D01*
X124095238Y-65583333D01*
X124190476Y-65630952D01*
X124238095Y-65678571D01*
X124285714Y-65773809D01*
X124285714Y-66011904D01*
X124238095Y-66107142D01*
X124190476Y-66154761D01*
X124095238Y-66202380D01*
X123809523Y-66202380D01*
X123714285Y-66154761D01*
X123666666Y-66107142D01*
X123952380Y-72451904D02*
X122952380Y-72451904D01*
X123952380Y-71880476D02*
X123380952Y-72309047D01*
X122952380Y-71880476D02*
X123523809Y-72451904D01*
%TD*%
M02*
