M48
; DRILL file {KiCad 5.1.10-88a1d61d58~90~ubuntu20.04.1} date Fri Oct 29 09:57:52 2021
; FORMAT={-:-/ absolute / inch / decimal}
; #@! TF.CreationDate,2021-10-29T09:57:52+11:00
; #@! TF.GenerationSoftware,Kicad,Pcbnew,5.1.10-88a1d61d58~90~ubuntu20.04.1
; #@! TF.FileFunction,Plated,1,2,PTH
FMAT,2
INCH
T1C0.0157
T2C0.0315
T3C0.0354
T4C0.0394
T5C0.0591
T6C0.0669
%
G90
G05
T1
X4.8327Y-3.2185
X4.8622Y-2.2638
X4.872Y-2.9331
X5.0689Y-3.0118
X5.5512Y-2.9035
T2
X5.1476Y-2.1949
X5.1476Y-2.2736
X5.3543Y-3.248
X5.3937Y-2.1949
X5.3937Y-2.2736
X5.4543Y-3.148
X5.5543Y-3.248
X5.8169Y-2.6083
X5.8957Y-2.6083
T3
X4.8622Y-2.6673
X4.8622Y-2.7673
T4
X5.8169Y-2.2244
X5.8169Y-2.3244
X5.8169Y-2.4244
T5
X5.8169Y-3.0217
T6
X5.7169Y-2.9217
X5.7169Y-3.1217
X5.9169Y-2.9217
X5.9169Y-3.1217
T0
M30
