%TF.GenerationSoftware,KiCad,Pcbnew,5.1.10-88a1d61d58~90~ubuntu20.04.1*%
%TF.CreationDate,2021-10-29T09:56:54+11:00*%
%TF.ProjectId,simple-photodetector,73696d70-6c65-42d7-9068-6f746f646574,rev?*%
%TF.SameCoordinates,Original*%
%TF.FileFunction,Paste,Top*%
%TF.FilePolarity,Positive*%
%FSLAX46Y46*%
G04 Gerber Fmt 4.6, Leading zero omitted, Abs format (unit mm)*
G04 Created by KiCad (PCBNEW 5.1.10-88a1d61d58~90~ubuntu20.04.1) date 2021-10-29 09:56:54*
%MOMM*%
%LPD*%
G01*
G04 APERTURE LIST*
G04 APERTURE END LIST*
%TO.C,C4*%
G36*
G01*
X124150001Y-64662500D02*
X122849999Y-64662500D01*
G75*
G02*
X122600000Y-64412501I0J249999D01*
G01*
X122600000Y-63587499D01*
G75*
G02*
X122849999Y-63337500I249999J0D01*
G01*
X124150001Y-63337500D01*
G75*
G02*
X124400000Y-63587499I0J-249999D01*
G01*
X124400000Y-64412501D01*
G75*
G02*
X124150001Y-64662500I-249999J0D01*
G01*
G37*
G36*
G01*
X124150001Y-61537500D02*
X122849999Y-61537500D01*
G75*
G02*
X122600000Y-61287501I0J249999D01*
G01*
X122600000Y-60462499D01*
G75*
G02*
X122849999Y-60212500I249999J0D01*
G01*
X124150001Y-60212500D01*
G75*
G02*
X124400000Y-60462499I0J-249999D01*
G01*
X124400000Y-61287501D01*
G75*
G02*
X124150001Y-61537500I-249999J0D01*
G01*
G37*
%TD*%
%TO.C,C5*%
G36*
G01*
X127287500Y-65349999D02*
X127287500Y-66650001D01*
G75*
G02*
X127037501Y-66900000I-249999J0D01*
G01*
X126212499Y-66900000D01*
G75*
G02*
X125962500Y-66650001I0J249999D01*
G01*
X125962500Y-65349999D01*
G75*
G02*
X126212499Y-65100000I249999J0D01*
G01*
X127037501Y-65100000D01*
G75*
G02*
X127287500Y-65349999I0J-249999D01*
G01*
G37*
G36*
G01*
X130412500Y-65349999D02*
X130412500Y-66650001D01*
G75*
G02*
X130162501Y-66900000I-249999J0D01*
G01*
X129337499Y-66900000D01*
G75*
G02*
X129087500Y-66650001I0J249999D01*
G01*
X129087500Y-65349999D01*
G75*
G02*
X129337499Y-65100000I249999J0D01*
G01*
X130162501Y-65100000D01*
G75*
G02*
X130412500Y-65349999I0J-249999D01*
G01*
G37*
%TD*%
%TO.C,C6*%
G36*
G01*
X139287500Y-74599999D02*
X139287500Y-75900001D01*
G75*
G02*
X139037501Y-76150000I-249999J0D01*
G01*
X138212499Y-76150000D01*
G75*
G02*
X137962500Y-75900001I0J249999D01*
G01*
X137962500Y-74599999D01*
G75*
G02*
X138212499Y-74350000I249999J0D01*
G01*
X139037501Y-74350000D01*
G75*
G02*
X139287500Y-74599999I0J-249999D01*
G01*
G37*
G36*
G01*
X136162500Y-74599999D02*
X136162500Y-75900001D01*
G75*
G02*
X135912501Y-76150000I-249999J0D01*
G01*
X135087499Y-76150000D01*
G75*
G02*
X134837500Y-75900001I0J249999D01*
G01*
X134837500Y-74599999D01*
G75*
G02*
X135087499Y-74350000I249999J0D01*
G01*
X135912501Y-74350000D01*
G75*
G02*
X136162500Y-74599999I0J-249999D01*
G01*
G37*
%TD*%
%TO.C,C7*%
G36*
G01*
X123400001Y-77600000D02*
X122099999Y-77600000D01*
G75*
G02*
X121850000Y-77350001I0J249999D01*
G01*
X121850000Y-76524999D01*
G75*
G02*
X122099999Y-76275000I249999J0D01*
G01*
X123400001Y-76275000D01*
G75*
G02*
X123650000Y-76524999I0J-249999D01*
G01*
X123650000Y-77350001D01*
G75*
G02*
X123400001Y-77600000I-249999J0D01*
G01*
G37*
G36*
G01*
X123400001Y-80725000D02*
X122099999Y-80725000D01*
G75*
G02*
X121850000Y-80475001I0J249999D01*
G01*
X121850000Y-79649999D01*
G75*
G02*
X122099999Y-79400000I249999J0D01*
G01*
X123400001Y-79400000D01*
G75*
G02*
X123650000Y-79649999I0J-249999D01*
G01*
X123650000Y-80475001D01*
G75*
G02*
X123400001Y-80725000I-249999J0D01*
G01*
G37*
%TD*%
%TO.C,D1*%
G36*
G01*
X140562500Y-57125000D02*
X140562500Y-55875000D01*
G75*
G02*
X140812500Y-55625000I250000J0D01*
G01*
X141737500Y-55625000D01*
G75*
G02*
X141987500Y-55875000I0J-250000D01*
G01*
X141987500Y-57125000D01*
G75*
G02*
X141737500Y-57375000I-250000J0D01*
G01*
X140812500Y-57375000D01*
G75*
G02*
X140562500Y-57125000I0J250000D01*
G01*
G37*
G36*
G01*
X143537500Y-57125000D02*
X143537500Y-55875000D01*
G75*
G02*
X143787500Y-55625000I250000J0D01*
G01*
X144712500Y-55625000D01*
G75*
G02*
X144962500Y-55875000I0J-250000D01*
G01*
X144962500Y-57125000D01*
G75*
G02*
X144712500Y-57375000I-250000J0D01*
G01*
X143787500Y-57375000D01*
G75*
G02*
X143537500Y-57125000I0J250000D01*
G01*
G37*
%TD*%
%TO.C,D2*%
G36*
G01*
X141987500Y-60875000D02*
X141987500Y-62125000D01*
G75*
G02*
X141737500Y-62375000I-250000J0D01*
G01*
X140812500Y-62375000D01*
G75*
G02*
X140562500Y-62125000I0J250000D01*
G01*
X140562500Y-60875000D01*
G75*
G02*
X140812500Y-60625000I250000J0D01*
G01*
X141737500Y-60625000D01*
G75*
G02*
X141987500Y-60875000I0J-250000D01*
G01*
G37*
G36*
G01*
X144962500Y-60875000D02*
X144962500Y-62125000D01*
G75*
G02*
X144712500Y-62375000I-250000J0D01*
G01*
X143787500Y-62375000D01*
G75*
G02*
X143537500Y-62125000I0J250000D01*
G01*
X143537500Y-60875000D01*
G75*
G02*
X143787500Y-60625000I250000J0D01*
G01*
X144712500Y-60625000D01*
G75*
G02*
X144962500Y-60875000I0J-250000D01*
G01*
G37*
%TD*%
%TO.C,R1*%
G36*
G01*
X130400000Y-69125000D02*
X130400000Y-70375000D01*
G75*
G02*
X130150000Y-70625000I-250000J0D01*
G01*
X129350000Y-70625000D01*
G75*
G02*
X129100000Y-70375000I0J250000D01*
G01*
X129100000Y-69125000D01*
G75*
G02*
X129350000Y-68875000I250000J0D01*
G01*
X130150000Y-68875000D01*
G75*
G02*
X130400000Y-69125000I0J-250000D01*
G01*
G37*
G36*
G01*
X127300000Y-69125000D02*
X127300000Y-70375000D01*
G75*
G02*
X127050000Y-70625000I-250000J0D01*
G01*
X126250000Y-70625000D01*
G75*
G02*
X126000000Y-70375000I0J250000D01*
G01*
X126000000Y-69125000D01*
G75*
G02*
X126250000Y-68875000I250000J0D01*
G01*
X127050000Y-68875000D01*
G75*
G02*
X127300000Y-69125000I0J-250000D01*
G01*
G37*
%TD*%
%TO.C,U1*%
G36*
G01*
X125550000Y-73245000D02*
X125550000Y-72945000D01*
G75*
G02*
X125700000Y-72795000I150000J0D01*
G01*
X127350000Y-72795000D01*
G75*
G02*
X127500000Y-72945000I0J-150000D01*
G01*
X127500000Y-73245000D01*
G75*
G02*
X127350000Y-73395000I-150000J0D01*
G01*
X125700000Y-73395000D01*
G75*
G02*
X125550000Y-73245000I0J150000D01*
G01*
G37*
G36*
G01*
X125550000Y-74515000D02*
X125550000Y-74215000D01*
G75*
G02*
X125700000Y-74065000I150000J0D01*
G01*
X127350000Y-74065000D01*
G75*
G02*
X127500000Y-74215000I0J-150000D01*
G01*
X127500000Y-74515000D01*
G75*
G02*
X127350000Y-74665000I-150000J0D01*
G01*
X125700000Y-74665000D01*
G75*
G02*
X125550000Y-74515000I0J150000D01*
G01*
G37*
G36*
G01*
X125550000Y-75785000D02*
X125550000Y-75485000D01*
G75*
G02*
X125700000Y-75335000I150000J0D01*
G01*
X127350000Y-75335000D01*
G75*
G02*
X127500000Y-75485000I0J-150000D01*
G01*
X127500000Y-75785000D01*
G75*
G02*
X127350000Y-75935000I-150000J0D01*
G01*
X125700000Y-75935000D01*
G75*
G02*
X125550000Y-75785000I0J150000D01*
G01*
G37*
G36*
G01*
X125550000Y-77055000D02*
X125550000Y-76755000D01*
G75*
G02*
X125700000Y-76605000I150000J0D01*
G01*
X127350000Y-76605000D01*
G75*
G02*
X127500000Y-76755000I0J-150000D01*
G01*
X127500000Y-77055000D01*
G75*
G02*
X127350000Y-77205000I-150000J0D01*
G01*
X125700000Y-77205000D01*
G75*
G02*
X125550000Y-77055000I0J150000D01*
G01*
G37*
G36*
G01*
X130500000Y-77055000D02*
X130500000Y-76755000D01*
G75*
G02*
X130650000Y-76605000I150000J0D01*
G01*
X132300000Y-76605000D01*
G75*
G02*
X132450000Y-76755000I0J-150000D01*
G01*
X132450000Y-77055000D01*
G75*
G02*
X132300000Y-77205000I-150000J0D01*
G01*
X130650000Y-77205000D01*
G75*
G02*
X130500000Y-77055000I0J150000D01*
G01*
G37*
G36*
G01*
X130500000Y-75785000D02*
X130500000Y-75485000D01*
G75*
G02*
X130650000Y-75335000I150000J0D01*
G01*
X132300000Y-75335000D01*
G75*
G02*
X132450000Y-75485000I0J-150000D01*
G01*
X132450000Y-75785000D01*
G75*
G02*
X132300000Y-75935000I-150000J0D01*
G01*
X130650000Y-75935000D01*
G75*
G02*
X130500000Y-75785000I0J150000D01*
G01*
G37*
G36*
G01*
X130500000Y-74515000D02*
X130500000Y-74215000D01*
G75*
G02*
X130650000Y-74065000I150000J0D01*
G01*
X132300000Y-74065000D01*
G75*
G02*
X132450000Y-74215000I0J-150000D01*
G01*
X132450000Y-74515000D01*
G75*
G02*
X132300000Y-74665000I-150000J0D01*
G01*
X130650000Y-74665000D01*
G75*
G02*
X130500000Y-74515000I0J150000D01*
G01*
G37*
G36*
G01*
X130500000Y-73245000D02*
X130500000Y-72945000D01*
G75*
G02*
X130650000Y-72795000I150000J0D01*
G01*
X132300000Y-72795000D01*
G75*
G02*
X132450000Y-72945000I0J-150000D01*
G01*
X132450000Y-73245000D01*
G75*
G02*
X132300000Y-73395000I-150000J0D01*
G01*
X130650000Y-73395000D01*
G75*
G02*
X130500000Y-73245000I0J150000D01*
G01*
G37*
%TD*%
M02*
