%TF.GenerationSoftware,KiCad,Pcbnew,5.1.10-88a1d61d58~90~ubuntu20.04.1*%
%TF.CreationDate,2021-10-29T09:56:54+11:00*%
%TF.ProjectId,simple-photodetector,73696d70-6c65-42d7-9068-6f746f646574,rev?*%
%TF.SameCoordinates,Original*%
%TF.FileFunction,Copper,L2,Bot*%
%TF.FilePolarity,Positive*%
%FSLAX46Y46*%
G04 Gerber Fmt 4.6, Leading zero omitted, Abs format (unit mm)*
G04 Created by KiCad (PCBNEW 5.1.10-88a1d61d58~90~ubuntu20.04.1) date 2021-10-29 09:56:54*
%MOMM*%
%LPD*%
G01*
G04 APERTURE LIST*
%TA.AperFunction,ComponentPad*%
%ADD10C,1.440000*%
%TD*%
%TA.AperFunction,ComponentPad*%
%ADD11R,1.600000X1.600000*%
%TD*%
%TA.AperFunction,ComponentPad*%
%ADD12C,1.600000*%
%TD*%
%TA.AperFunction,ComponentPad*%
%ADD13R,1.700000X1.700000*%
%TD*%
%TA.AperFunction,ComponentPad*%
%ADD14O,1.700000X1.700000*%
%TD*%
%TA.AperFunction,ComponentPad*%
%ADD15C,2.250000*%
%TD*%
%TA.AperFunction,ComponentPad*%
%ADD16R,1.800000X1.800000*%
%TD*%
%TA.AperFunction,ComponentPad*%
%ADD17O,1.800000X1.800000*%
%TD*%
%TA.AperFunction,ViaPad*%
%ADD18C,0.800000*%
%TD*%
%TA.AperFunction,Conductor*%
%ADD19C,0.500000*%
%TD*%
%TA.AperFunction,Conductor*%
%ADD20C,0.254000*%
%TD*%
%TA.AperFunction,Conductor*%
%ADD21C,0.100000*%
%TD*%
G04 APERTURE END LIST*
D10*
%TO.P,RV1,3*%
%TO.N,GND*%
X141080000Y-82500000D03*
%TO.P,RV1,2*%
%TO.N,Net-(J2-Pad1)*%
X138540000Y-79960000D03*
%TO.P,RV1,1*%
%TO.N,Net-(RV1-Pad1)*%
X136000000Y-82500000D03*
%TD*%
D11*
%TO.P,C1,1*%
%TO.N,/VDD*%
X130750000Y-55750000D03*
D12*
%TO.P,C1,2*%
%TO.N,GND*%
X130750000Y-57750000D03*
%TD*%
%TO.P,C2,2*%
%TO.N,/VSS*%
X147750000Y-66250000D03*
D11*
%TO.P,C2,1*%
%TO.N,GND*%
X149750000Y-66250000D03*
%TD*%
%TO.P,C3,1*%
%TO.N,/VDD*%
X137000000Y-55750000D03*
D12*
%TO.P,C3,2*%
%TO.N,/VSS*%
X137000000Y-57750000D03*
%TD*%
D13*
%TO.P,J1,1*%
%TO.N,Net-(D1-Pad2)*%
X147750000Y-56500000D03*
D14*
%TO.P,J1,2*%
%TO.N,GND*%
X147750000Y-59040000D03*
%TO.P,J1,3*%
%TO.N,Net-(D2-Pad1)*%
X147750000Y-61580000D03*
%TD*%
D15*
%TO.P,J2,2*%
%TO.N,GND*%
X145210000Y-74210000D03*
X150290000Y-74210000D03*
X150290000Y-79290000D03*
X145210000Y-79290000D03*
%TO.P,J2,1*%
%TO.N,Net-(J2-Pad1)*%
X147750000Y-76750000D03*
%TD*%
D16*
%TO.P,D3,1*%
%TO.N,Net-(C5-Pad2)*%
X123500000Y-70290000D03*
D17*
%TO.P,D3,2*%
%TO.N,/VSS*%
X123500000Y-67750000D03*
%TD*%
D18*
%TO.N,GND*%
X123500000Y-57500000D03*
X122750000Y-81750000D03*
X123750000Y-74500000D03*
X141000000Y-73750000D03*
%TO.N,/VSS*%
X128750000Y-76500000D03*
%TD*%
D19*
%TO.N,/VSS*%
X128750000Y-66000000D02*
X137000000Y-57750000D01*
X128540000Y-67710000D02*
X128750000Y-67500000D01*
X123500000Y-67710000D02*
X128540000Y-67710000D01*
X128750000Y-67500000D02*
X128750000Y-66000000D01*
X128750000Y-76500000D02*
X128750000Y-67500000D01*
%TD*%
D20*
%TO.N,GND*%
X151340000Y-67032418D02*
X151340001Y-67032428D01*
X151340001Y-72980391D01*
X151334925Y-72985467D01*
X151224079Y-72708286D01*
X150913160Y-72554911D01*
X150578295Y-72465140D01*
X150232350Y-72442424D01*
X149888620Y-72487634D01*
X149560315Y-72599034D01*
X149355921Y-72708286D01*
X149245074Y-72985469D01*
X150290000Y-74030395D01*
X150304143Y-74016253D01*
X150483748Y-74195858D01*
X150469605Y-74210000D01*
X150483748Y-74224143D01*
X150304143Y-74403748D01*
X150290000Y-74389605D01*
X149245074Y-75434531D01*
X149355921Y-75711714D01*
X149666840Y-75865089D01*
X150001705Y-75954860D01*
X150347650Y-75977576D01*
X150691380Y-75932366D01*
X151019685Y-75820966D01*
X151224079Y-75711714D01*
X151334925Y-75434533D01*
X151340001Y-75439609D01*
X151340000Y-78060392D01*
X151334925Y-78065467D01*
X151224079Y-77788286D01*
X150913160Y-77634911D01*
X150578295Y-77545140D01*
X150232350Y-77522424D01*
X149888620Y-77567634D01*
X149560315Y-77679034D01*
X149355921Y-77788286D01*
X149245074Y-78065469D01*
X150290000Y-79110395D01*
X150304143Y-79096253D01*
X150483748Y-79275858D01*
X150469605Y-79290000D01*
X150483748Y-79304143D01*
X150304143Y-79483748D01*
X150290000Y-79469605D01*
X149245074Y-80514531D01*
X149355921Y-80791714D01*
X149666840Y-80945089D01*
X150001705Y-81034860D01*
X150347650Y-81057576D01*
X150691380Y-81012366D01*
X151019685Y-80900966D01*
X151224079Y-80791714D01*
X151334925Y-80514533D01*
X151340000Y-80519608D01*
X151340000Y-83840000D01*
X141281109Y-83840000D01*
X141417501Y-83819063D01*
X141668353Y-83727875D01*
X141774068Y-83671368D01*
X141835955Y-83435560D01*
X141080000Y-82679605D01*
X140324045Y-83435560D01*
X140385932Y-83671368D01*
X140627790Y-83784266D01*
X140855161Y-83840000D01*
X136208866Y-83840000D01*
X136395239Y-83802928D01*
X136641833Y-83700785D01*
X136863762Y-83552497D01*
X137052497Y-83363762D01*
X137200785Y-83141833D01*
X137302928Y-82895239D01*
X137355000Y-82633456D01*
X137355000Y-82573680D01*
X139720439Y-82573680D01*
X139760937Y-82837501D01*
X139852125Y-83088353D01*
X139908632Y-83194068D01*
X140144440Y-83255955D01*
X140900395Y-82500000D01*
X141259605Y-82500000D01*
X142015560Y-83255955D01*
X142251368Y-83194068D01*
X142364266Y-82952210D01*
X142427811Y-82692973D01*
X142439561Y-82426320D01*
X142399063Y-82162499D01*
X142307875Y-81911647D01*
X142251368Y-81805932D01*
X142015560Y-81744045D01*
X141259605Y-82500000D01*
X140900395Y-82500000D01*
X140144440Y-81744045D01*
X139908632Y-81805932D01*
X139795734Y-82047790D01*
X139732189Y-82307027D01*
X139720439Y-82573680D01*
X137355000Y-82573680D01*
X137355000Y-82366544D01*
X137302928Y-82104761D01*
X137200785Y-81858167D01*
X137052497Y-81636238D01*
X136980699Y-81564440D01*
X140324045Y-81564440D01*
X141080000Y-82320395D01*
X141835955Y-81564440D01*
X141774068Y-81328632D01*
X141532210Y-81215734D01*
X141272973Y-81152189D01*
X141006320Y-81140439D01*
X140742499Y-81180937D01*
X140491647Y-81272125D01*
X140385932Y-81328632D01*
X140324045Y-81564440D01*
X136980699Y-81564440D01*
X136863762Y-81447503D01*
X136641833Y-81299215D01*
X136395239Y-81197072D01*
X136133456Y-81145000D01*
X135866544Y-81145000D01*
X135604761Y-81197072D01*
X135358167Y-81299215D01*
X135136238Y-81447503D01*
X134947503Y-81636238D01*
X134799215Y-81858167D01*
X134697072Y-82104761D01*
X134645000Y-82366544D01*
X134645000Y-82633456D01*
X134697072Y-82895239D01*
X134799215Y-83141833D01*
X134947503Y-83363762D01*
X135136238Y-83552497D01*
X135358167Y-83700785D01*
X135604761Y-83802928D01*
X135791134Y-83840000D01*
X121660000Y-83840000D01*
X121660000Y-79826544D01*
X137185000Y-79826544D01*
X137185000Y-80093456D01*
X137237072Y-80355239D01*
X137339215Y-80601833D01*
X137487503Y-80823762D01*
X137676238Y-81012497D01*
X137898167Y-81160785D01*
X138144761Y-81262928D01*
X138406544Y-81315000D01*
X138673456Y-81315000D01*
X138935239Y-81262928D01*
X139181833Y-81160785D01*
X139403762Y-81012497D01*
X139592497Y-80823762D01*
X139740785Y-80601833D01*
X139776946Y-80514531D01*
X144165074Y-80514531D01*
X144275921Y-80791714D01*
X144586840Y-80945089D01*
X144921705Y-81034860D01*
X145267650Y-81057576D01*
X145611380Y-81012366D01*
X145939685Y-80900966D01*
X146144079Y-80791714D01*
X146254926Y-80514531D01*
X145210000Y-79469605D01*
X144165074Y-80514531D01*
X139776946Y-80514531D01*
X139842928Y-80355239D01*
X139895000Y-80093456D01*
X139895000Y-79826544D01*
X139842928Y-79564761D01*
X139752998Y-79347650D01*
X143442424Y-79347650D01*
X143487634Y-79691380D01*
X143599034Y-80019685D01*
X143708286Y-80224079D01*
X143985469Y-80334926D01*
X145030395Y-79290000D01*
X145389605Y-79290000D01*
X146434531Y-80334926D01*
X146711714Y-80224079D01*
X146865089Y-79913160D01*
X146954860Y-79578295D01*
X146970004Y-79347650D01*
X148522424Y-79347650D01*
X148567634Y-79691380D01*
X148679034Y-80019685D01*
X148788286Y-80224079D01*
X149065469Y-80334926D01*
X150110395Y-79290000D01*
X149065469Y-78245074D01*
X148788286Y-78355921D01*
X148634911Y-78666840D01*
X148545140Y-79001705D01*
X148522424Y-79347650D01*
X146970004Y-79347650D01*
X146977576Y-79232350D01*
X146932366Y-78888620D01*
X146820966Y-78560315D01*
X146711714Y-78355921D01*
X146434531Y-78245074D01*
X145389605Y-79290000D01*
X145030395Y-79290000D01*
X143985469Y-78245074D01*
X143708286Y-78355921D01*
X143554911Y-78666840D01*
X143465140Y-79001705D01*
X143442424Y-79347650D01*
X139752998Y-79347650D01*
X139740785Y-79318167D01*
X139592497Y-79096238D01*
X139403762Y-78907503D01*
X139181833Y-78759215D01*
X138935239Y-78657072D01*
X138673456Y-78605000D01*
X138406544Y-78605000D01*
X138144761Y-78657072D01*
X137898167Y-78759215D01*
X137676238Y-78907503D01*
X137487503Y-79096238D01*
X137339215Y-79318167D01*
X137237072Y-79564761D01*
X137185000Y-79826544D01*
X121660000Y-79826544D01*
X121660000Y-78065469D01*
X144165074Y-78065469D01*
X145210000Y-79110395D01*
X146254926Y-78065469D01*
X146144079Y-77788286D01*
X145833160Y-77634911D01*
X145498295Y-77545140D01*
X145152350Y-77522424D01*
X144808620Y-77567634D01*
X144480315Y-77679034D01*
X144275921Y-77788286D01*
X144165074Y-78065469D01*
X121660000Y-78065469D01*
X121660000Y-69390000D01*
X121961928Y-69390000D01*
X121961928Y-71190000D01*
X121974188Y-71314482D01*
X122010498Y-71434180D01*
X122069463Y-71544494D01*
X122148815Y-71641185D01*
X122245506Y-71720537D01*
X122355820Y-71779502D01*
X122475518Y-71815812D01*
X122600000Y-71828072D01*
X124400000Y-71828072D01*
X124524482Y-71815812D01*
X124644180Y-71779502D01*
X124754494Y-71720537D01*
X124851185Y-71641185D01*
X124930537Y-71544494D01*
X124989502Y-71434180D01*
X125025812Y-71314482D01*
X125038072Y-71190000D01*
X125038072Y-69390000D01*
X125025812Y-69265518D01*
X124989502Y-69145820D01*
X124930537Y-69035506D01*
X124851185Y-68938815D01*
X124754494Y-68859463D01*
X124644180Y-68800498D01*
X124625873Y-68794944D01*
X124692312Y-68728505D01*
X124781517Y-68595000D01*
X127865001Y-68595000D01*
X127865000Y-75961546D01*
X127832795Y-76009744D01*
X127754774Y-76198102D01*
X127715000Y-76398061D01*
X127715000Y-76601939D01*
X127754774Y-76801898D01*
X127832795Y-76990256D01*
X127946063Y-77159774D01*
X128090226Y-77303937D01*
X128259744Y-77417205D01*
X128448102Y-77495226D01*
X128648061Y-77535000D01*
X128851939Y-77535000D01*
X129051898Y-77495226D01*
X129240256Y-77417205D01*
X129409774Y-77303937D01*
X129553937Y-77159774D01*
X129667205Y-76990256D01*
X129745226Y-76801898D01*
X129785000Y-76601939D01*
X129785000Y-76576655D01*
X145990000Y-76576655D01*
X145990000Y-76923345D01*
X146057636Y-77263373D01*
X146190308Y-77583673D01*
X146382919Y-77871935D01*
X146628065Y-78117081D01*
X146916327Y-78309692D01*
X147236627Y-78442364D01*
X147576655Y-78510000D01*
X147923345Y-78510000D01*
X148263373Y-78442364D01*
X148583673Y-78309692D01*
X148871935Y-78117081D01*
X149117081Y-77871935D01*
X149309692Y-77583673D01*
X149442364Y-77263373D01*
X149510000Y-76923345D01*
X149510000Y-76576655D01*
X149442364Y-76236627D01*
X149309692Y-75916327D01*
X149117081Y-75628065D01*
X148871935Y-75382919D01*
X148583673Y-75190308D01*
X148263373Y-75057636D01*
X147923345Y-74990000D01*
X147576655Y-74990000D01*
X147236627Y-75057636D01*
X146916327Y-75190308D01*
X146628065Y-75382919D01*
X146382919Y-75628065D01*
X146190308Y-75916327D01*
X146057636Y-76236627D01*
X145990000Y-76576655D01*
X129785000Y-76576655D01*
X129785000Y-76398061D01*
X129745226Y-76198102D01*
X129667205Y-76009744D01*
X129635000Y-75961546D01*
X129635000Y-75434531D01*
X144165074Y-75434531D01*
X144275921Y-75711714D01*
X144586840Y-75865089D01*
X144921705Y-75954860D01*
X145267650Y-75977576D01*
X145611380Y-75932366D01*
X145939685Y-75820966D01*
X146144079Y-75711714D01*
X146254926Y-75434531D01*
X145210000Y-74389605D01*
X144165074Y-75434531D01*
X129635000Y-75434531D01*
X129635000Y-74267650D01*
X143442424Y-74267650D01*
X143487634Y-74611380D01*
X143599034Y-74939685D01*
X143708286Y-75144079D01*
X143985469Y-75254926D01*
X145030395Y-74210000D01*
X145389605Y-74210000D01*
X146434531Y-75254926D01*
X146711714Y-75144079D01*
X146865089Y-74833160D01*
X146954860Y-74498295D01*
X146970004Y-74267650D01*
X148522424Y-74267650D01*
X148567634Y-74611380D01*
X148679034Y-74939685D01*
X148788286Y-75144079D01*
X149065469Y-75254926D01*
X150110395Y-74210000D01*
X149065469Y-73165074D01*
X148788286Y-73275921D01*
X148634911Y-73586840D01*
X148545140Y-73921705D01*
X148522424Y-74267650D01*
X146970004Y-74267650D01*
X146977576Y-74152350D01*
X146932366Y-73808620D01*
X146820966Y-73480315D01*
X146711714Y-73275921D01*
X146434531Y-73165074D01*
X145389605Y-74210000D01*
X145030395Y-74210000D01*
X143985469Y-73165074D01*
X143708286Y-73275921D01*
X143554911Y-73586840D01*
X143465140Y-73921705D01*
X143442424Y-74267650D01*
X129635000Y-74267650D01*
X129635000Y-72985469D01*
X144165074Y-72985469D01*
X145210000Y-74030395D01*
X146254926Y-72985469D01*
X146144079Y-72708286D01*
X145833160Y-72554911D01*
X145498295Y-72465140D01*
X145152350Y-72442424D01*
X144808620Y-72487634D01*
X144480315Y-72599034D01*
X144275921Y-72708286D01*
X144165074Y-72985469D01*
X129635000Y-72985469D01*
X129635000Y-68725701D01*
X133715000Y-68725701D01*
X133715000Y-69274299D01*
X133822026Y-69812354D01*
X134031965Y-70319192D01*
X134336750Y-70775334D01*
X134724666Y-71163250D01*
X135180808Y-71468035D01*
X135687646Y-71677974D01*
X136225701Y-71785000D01*
X136774299Y-71785000D01*
X137312354Y-71677974D01*
X137819192Y-71468035D01*
X138275334Y-71163250D01*
X138663250Y-70775334D01*
X138968035Y-70319192D01*
X139177974Y-69812354D01*
X139285000Y-69274299D01*
X139285000Y-68725701D01*
X139177974Y-68187646D01*
X138968035Y-67680808D01*
X138663250Y-67224666D01*
X138275334Y-66836750D01*
X137819192Y-66531965D01*
X137312354Y-66322026D01*
X136774299Y-66215000D01*
X136225701Y-66215000D01*
X135687646Y-66322026D01*
X135180808Y-66531965D01*
X134724666Y-66836750D01*
X134336750Y-67224666D01*
X134031965Y-67680808D01*
X133822026Y-68187646D01*
X133715000Y-68725701D01*
X129635000Y-68725701D01*
X129635000Y-67543469D01*
X129639281Y-67500000D01*
X129635000Y-67456531D01*
X129635000Y-66366578D01*
X129892913Y-66108665D01*
X146315000Y-66108665D01*
X146315000Y-66391335D01*
X146370147Y-66668574D01*
X146478320Y-66929727D01*
X146635363Y-67164759D01*
X146835241Y-67364637D01*
X147070273Y-67521680D01*
X147331426Y-67629853D01*
X147608665Y-67685000D01*
X147891335Y-67685000D01*
X148168574Y-67629853D01*
X148429727Y-67521680D01*
X148485210Y-67484607D01*
X148498815Y-67501185D01*
X148595506Y-67580537D01*
X148705820Y-67639502D01*
X148825518Y-67675812D01*
X148950000Y-67688072D01*
X149464250Y-67685000D01*
X149623000Y-67526250D01*
X149623000Y-66377000D01*
X149877000Y-66377000D01*
X149877000Y-67526250D01*
X150035750Y-67685000D01*
X150550000Y-67688072D01*
X150674482Y-67675812D01*
X150794180Y-67639502D01*
X150904494Y-67580537D01*
X151001185Y-67501185D01*
X151080537Y-67404494D01*
X151139502Y-67294180D01*
X151175812Y-67174482D01*
X151188072Y-67050000D01*
X151185000Y-66535750D01*
X151026250Y-66377000D01*
X149877000Y-66377000D01*
X149623000Y-66377000D01*
X149603000Y-66377000D01*
X149603000Y-66123000D01*
X149623000Y-66123000D01*
X149623000Y-64973750D01*
X149877000Y-64973750D01*
X149877000Y-66123000D01*
X151026250Y-66123000D01*
X151185000Y-65964250D01*
X151188072Y-65450000D01*
X151175812Y-65325518D01*
X151139502Y-65205820D01*
X151080537Y-65095506D01*
X151001185Y-64998815D01*
X150904494Y-64919463D01*
X150794180Y-64860498D01*
X150674482Y-64824188D01*
X150550000Y-64811928D01*
X150035750Y-64815000D01*
X149877000Y-64973750D01*
X149623000Y-64973750D01*
X149464250Y-64815000D01*
X148950000Y-64811928D01*
X148825518Y-64824188D01*
X148705820Y-64860498D01*
X148595506Y-64919463D01*
X148498815Y-64998815D01*
X148485210Y-65015393D01*
X148429727Y-64978320D01*
X148168574Y-64870147D01*
X147891335Y-64815000D01*
X147608665Y-64815000D01*
X147331426Y-64870147D01*
X147070273Y-64978320D01*
X146835241Y-65135363D01*
X146635363Y-65335241D01*
X146478320Y-65570273D01*
X146370147Y-65831426D01*
X146315000Y-66108665D01*
X129892913Y-66108665D01*
X134567838Y-61433740D01*
X146265000Y-61433740D01*
X146265000Y-61726260D01*
X146322068Y-62013158D01*
X146434010Y-62283411D01*
X146596525Y-62526632D01*
X146803368Y-62733475D01*
X147046589Y-62895990D01*
X147316842Y-63007932D01*
X147603740Y-63065000D01*
X147896260Y-63065000D01*
X148183158Y-63007932D01*
X148453411Y-62895990D01*
X148696632Y-62733475D01*
X148903475Y-62526632D01*
X149065990Y-62283411D01*
X149177932Y-62013158D01*
X149235000Y-61726260D01*
X149235000Y-61433740D01*
X149177932Y-61146842D01*
X149065990Y-60876589D01*
X148903475Y-60633368D01*
X148696632Y-60426525D01*
X148514466Y-60304805D01*
X148631355Y-60235178D01*
X148847588Y-60040269D01*
X149021641Y-59806920D01*
X149146825Y-59544099D01*
X149191476Y-59396890D01*
X149070155Y-59167000D01*
X147877000Y-59167000D01*
X147877000Y-59187000D01*
X147623000Y-59187000D01*
X147623000Y-59167000D01*
X146429845Y-59167000D01*
X146308524Y-59396890D01*
X146353175Y-59544099D01*
X146478359Y-59806920D01*
X146652412Y-60040269D01*
X146868645Y-60235178D01*
X146985534Y-60304805D01*
X146803368Y-60426525D01*
X146596525Y-60633368D01*
X146434010Y-60876589D01*
X146322068Y-61146842D01*
X146265000Y-61433740D01*
X134567838Y-61433740D01*
X136823562Y-59178017D01*
X136858665Y-59185000D01*
X137141335Y-59185000D01*
X137418574Y-59129853D01*
X137679727Y-59021680D01*
X137914759Y-58864637D01*
X138114637Y-58664759D01*
X138271680Y-58429727D01*
X138379853Y-58168574D01*
X138435000Y-57891335D01*
X138435000Y-57608665D01*
X138379853Y-57331426D01*
X138271680Y-57070273D01*
X138234607Y-57014790D01*
X138251185Y-57001185D01*
X138330537Y-56904494D01*
X138389502Y-56794180D01*
X138425812Y-56674482D01*
X138438072Y-56550000D01*
X138438072Y-55650000D01*
X146261928Y-55650000D01*
X146261928Y-57350000D01*
X146274188Y-57474482D01*
X146310498Y-57594180D01*
X146369463Y-57704494D01*
X146448815Y-57801185D01*
X146545506Y-57880537D01*
X146655820Y-57939502D01*
X146736466Y-57963966D01*
X146652412Y-58039731D01*
X146478359Y-58273080D01*
X146353175Y-58535901D01*
X146308524Y-58683110D01*
X146429845Y-58913000D01*
X147623000Y-58913000D01*
X147623000Y-58893000D01*
X147877000Y-58893000D01*
X147877000Y-58913000D01*
X149070155Y-58913000D01*
X149191476Y-58683110D01*
X149146825Y-58535901D01*
X149021641Y-58273080D01*
X148847588Y-58039731D01*
X148763534Y-57963966D01*
X148844180Y-57939502D01*
X148954494Y-57880537D01*
X149051185Y-57801185D01*
X149130537Y-57704494D01*
X149189502Y-57594180D01*
X149225812Y-57474482D01*
X149238072Y-57350000D01*
X149238072Y-55650000D01*
X149225812Y-55525518D01*
X149189502Y-55405820D01*
X149130537Y-55295506D01*
X149051185Y-55198815D01*
X148954494Y-55119463D01*
X148844180Y-55060498D01*
X148724482Y-55024188D01*
X148600000Y-55011928D01*
X146900000Y-55011928D01*
X146775518Y-55024188D01*
X146655820Y-55060498D01*
X146545506Y-55119463D01*
X146448815Y-55198815D01*
X146369463Y-55295506D01*
X146310498Y-55405820D01*
X146274188Y-55525518D01*
X146261928Y-55650000D01*
X138438072Y-55650000D01*
X138438072Y-54950000D01*
X138425812Y-54825518D01*
X138389502Y-54705820D01*
X138330537Y-54595506D01*
X138251185Y-54498815D01*
X138154494Y-54419463D01*
X138044180Y-54360498D01*
X137924482Y-54324188D01*
X137800000Y-54311928D01*
X136200000Y-54311928D01*
X136075518Y-54324188D01*
X135955820Y-54360498D01*
X135845506Y-54419463D01*
X135748815Y-54498815D01*
X135669463Y-54595506D01*
X135610498Y-54705820D01*
X135574188Y-54825518D01*
X135561928Y-54950000D01*
X135561928Y-56550000D01*
X135574188Y-56674482D01*
X135610498Y-56794180D01*
X135669463Y-56904494D01*
X135748815Y-57001185D01*
X135765393Y-57014790D01*
X135728320Y-57070273D01*
X135620147Y-57331426D01*
X135565000Y-57608665D01*
X135565000Y-57891335D01*
X135571983Y-57926438D01*
X128154952Y-65343470D01*
X128121184Y-65371183D01*
X128093471Y-65404951D01*
X128093468Y-65404954D01*
X128010590Y-65505941D01*
X127928412Y-65659687D01*
X127877805Y-65826510D01*
X127860719Y-66000000D01*
X127865001Y-66043479D01*
X127865000Y-66825000D01*
X124728063Y-66825000D01*
X124692312Y-66771495D01*
X124478505Y-66557688D01*
X124227095Y-66389701D01*
X123947743Y-66273989D01*
X123651184Y-66215000D01*
X123348816Y-66215000D01*
X123052257Y-66273989D01*
X122772905Y-66389701D01*
X122521495Y-66557688D01*
X122307688Y-66771495D01*
X122139701Y-67022905D01*
X122023989Y-67302257D01*
X121965000Y-67598816D01*
X121965000Y-67901184D01*
X122023989Y-68197743D01*
X122139701Y-68477095D01*
X122307688Y-68728505D01*
X122374127Y-68794944D01*
X122355820Y-68800498D01*
X122245506Y-68859463D01*
X122148815Y-68938815D01*
X122069463Y-69035506D01*
X122010498Y-69145820D01*
X121974188Y-69265518D01*
X121961928Y-69390000D01*
X121660000Y-69390000D01*
X121660000Y-58742702D01*
X129936903Y-58742702D01*
X130008486Y-58986671D01*
X130263996Y-59107571D01*
X130538184Y-59176300D01*
X130820512Y-59190217D01*
X131100130Y-59148787D01*
X131366292Y-59053603D01*
X131491514Y-58986671D01*
X131563097Y-58742702D01*
X130750000Y-57929605D01*
X129936903Y-58742702D01*
X121660000Y-58742702D01*
X121660000Y-57820512D01*
X129309783Y-57820512D01*
X129351213Y-58100130D01*
X129446397Y-58366292D01*
X129513329Y-58491514D01*
X129757298Y-58563097D01*
X130570395Y-57750000D01*
X130556253Y-57735858D01*
X130735858Y-57556253D01*
X130750000Y-57570395D01*
X130764143Y-57556253D01*
X130943748Y-57735858D01*
X130929605Y-57750000D01*
X131742702Y-58563097D01*
X131986671Y-58491514D01*
X132107571Y-58236004D01*
X132176300Y-57961816D01*
X132190217Y-57679488D01*
X132148787Y-57399870D01*
X132053603Y-57133708D01*
X131988384Y-57011691D01*
X132001185Y-57001185D01*
X132080537Y-56904494D01*
X132139502Y-56794180D01*
X132175812Y-56674482D01*
X132188072Y-56550000D01*
X132188072Y-54950000D01*
X132175812Y-54825518D01*
X132139502Y-54705820D01*
X132080537Y-54595506D01*
X132001185Y-54498815D01*
X131904494Y-54419463D01*
X131794180Y-54360498D01*
X131674482Y-54324188D01*
X131550000Y-54311928D01*
X129950000Y-54311928D01*
X129825518Y-54324188D01*
X129705820Y-54360498D01*
X129595506Y-54419463D01*
X129498815Y-54498815D01*
X129419463Y-54595506D01*
X129360498Y-54705820D01*
X129324188Y-54825518D01*
X129311928Y-54950000D01*
X129311928Y-56550000D01*
X129324188Y-56674482D01*
X129360498Y-56794180D01*
X129419463Y-56904494D01*
X129498815Y-57001185D01*
X129511758Y-57011807D01*
X129392429Y-57263996D01*
X129323700Y-57538184D01*
X129309783Y-57820512D01*
X121660000Y-57820512D01*
X121660000Y-54160000D01*
X151340001Y-54160000D01*
X151340000Y-67032418D01*
%TA.AperFunction,Conductor*%
D21*
G36*
X151340000Y-67032418D02*
G01*
X151340001Y-67032428D01*
X151340001Y-72980391D01*
X151334925Y-72985467D01*
X151224079Y-72708286D01*
X150913160Y-72554911D01*
X150578295Y-72465140D01*
X150232350Y-72442424D01*
X149888620Y-72487634D01*
X149560315Y-72599034D01*
X149355921Y-72708286D01*
X149245074Y-72985469D01*
X150290000Y-74030395D01*
X150304143Y-74016253D01*
X150483748Y-74195858D01*
X150469605Y-74210000D01*
X150483748Y-74224143D01*
X150304143Y-74403748D01*
X150290000Y-74389605D01*
X149245074Y-75434531D01*
X149355921Y-75711714D01*
X149666840Y-75865089D01*
X150001705Y-75954860D01*
X150347650Y-75977576D01*
X150691380Y-75932366D01*
X151019685Y-75820966D01*
X151224079Y-75711714D01*
X151334925Y-75434533D01*
X151340001Y-75439609D01*
X151340000Y-78060392D01*
X151334925Y-78065467D01*
X151224079Y-77788286D01*
X150913160Y-77634911D01*
X150578295Y-77545140D01*
X150232350Y-77522424D01*
X149888620Y-77567634D01*
X149560315Y-77679034D01*
X149355921Y-77788286D01*
X149245074Y-78065469D01*
X150290000Y-79110395D01*
X150304143Y-79096253D01*
X150483748Y-79275858D01*
X150469605Y-79290000D01*
X150483748Y-79304143D01*
X150304143Y-79483748D01*
X150290000Y-79469605D01*
X149245074Y-80514531D01*
X149355921Y-80791714D01*
X149666840Y-80945089D01*
X150001705Y-81034860D01*
X150347650Y-81057576D01*
X150691380Y-81012366D01*
X151019685Y-80900966D01*
X151224079Y-80791714D01*
X151334925Y-80514533D01*
X151340000Y-80519608D01*
X151340000Y-83840000D01*
X141281109Y-83840000D01*
X141417501Y-83819063D01*
X141668353Y-83727875D01*
X141774068Y-83671368D01*
X141835955Y-83435560D01*
X141080000Y-82679605D01*
X140324045Y-83435560D01*
X140385932Y-83671368D01*
X140627790Y-83784266D01*
X140855161Y-83840000D01*
X136208866Y-83840000D01*
X136395239Y-83802928D01*
X136641833Y-83700785D01*
X136863762Y-83552497D01*
X137052497Y-83363762D01*
X137200785Y-83141833D01*
X137302928Y-82895239D01*
X137355000Y-82633456D01*
X137355000Y-82573680D01*
X139720439Y-82573680D01*
X139760937Y-82837501D01*
X139852125Y-83088353D01*
X139908632Y-83194068D01*
X140144440Y-83255955D01*
X140900395Y-82500000D01*
X141259605Y-82500000D01*
X142015560Y-83255955D01*
X142251368Y-83194068D01*
X142364266Y-82952210D01*
X142427811Y-82692973D01*
X142439561Y-82426320D01*
X142399063Y-82162499D01*
X142307875Y-81911647D01*
X142251368Y-81805932D01*
X142015560Y-81744045D01*
X141259605Y-82500000D01*
X140900395Y-82500000D01*
X140144440Y-81744045D01*
X139908632Y-81805932D01*
X139795734Y-82047790D01*
X139732189Y-82307027D01*
X139720439Y-82573680D01*
X137355000Y-82573680D01*
X137355000Y-82366544D01*
X137302928Y-82104761D01*
X137200785Y-81858167D01*
X137052497Y-81636238D01*
X136980699Y-81564440D01*
X140324045Y-81564440D01*
X141080000Y-82320395D01*
X141835955Y-81564440D01*
X141774068Y-81328632D01*
X141532210Y-81215734D01*
X141272973Y-81152189D01*
X141006320Y-81140439D01*
X140742499Y-81180937D01*
X140491647Y-81272125D01*
X140385932Y-81328632D01*
X140324045Y-81564440D01*
X136980699Y-81564440D01*
X136863762Y-81447503D01*
X136641833Y-81299215D01*
X136395239Y-81197072D01*
X136133456Y-81145000D01*
X135866544Y-81145000D01*
X135604761Y-81197072D01*
X135358167Y-81299215D01*
X135136238Y-81447503D01*
X134947503Y-81636238D01*
X134799215Y-81858167D01*
X134697072Y-82104761D01*
X134645000Y-82366544D01*
X134645000Y-82633456D01*
X134697072Y-82895239D01*
X134799215Y-83141833D01*
X134947503Y-83363762D01*
X135136238Y-83552497D01*
X135358167Y-83700785D01*
X135604761Y-83802928D01*
X135791134Y-83840000D01*
X121660000Y-83840000D01*
X121660000Y-79826544D01*
X137185000Y-79826544D01*
X137185000Y-80093456D01*
X137237072Y-80355239D01*
X137339215Y-80601833D01*
X137487503Y-80823762D01*
X137676238Y-81012497D01*
X137898167Y-81160785D01*
X138144761Y-81262928D01*
X138406544Y-81315000D01*
X138673456Y-81315000D01*
X138935239Y-81262928D01*
X139181833Y-81160785D01*
X139403762Y-81012497D01*
X139592497Y-80823762D01*
X139740785Y-80601833D01*
X139776946Y-80514531D01*
X144165074Y-80514531D01*
X144275921Y-80791714D01*
X144586840Y-80945089D01*
X144921705Y-81034860D01*
X145267650Y-81057576D01*
X145611380Y-81012366D01*
X145939685Y-80900966D01*
X146144079Y-80791714D01*
X146254926Y-80514531D01*
X145210000Y-79469605D01*
X144165074Y-80514531D01*
X139776946Y-80514531D01*
X139842928Y-80355239D01*
X139895000Y-80093456D01*
X139895000Y-79826544D01*
X139842928Y-79564761D01*
X139752998Y-79347650D01*
X143442424Y-79347650D01*
X143487634Y-79691380D01*
X143599034Y-80019685D01*
X143708286Y-80224079D01*
X143985469Y-80334926D01*
X145030395Y-79290000D01*
X145389605Y-79290000D01*
X146434531Y-80334926D01*
X146711714Y-80224079D01*
X146865089Y-79913160D01*
X146954860Y-79578295D01*
X146970004Y-79347650D01*
X148522424Y-79347650D01*
X148567634Y-79691380D01*
X148679034Y-80019685D01*
X148788286Y-80224079D01*
X149065469Y-80334926D01*
X150110395Y-79290000D01*
X149065469Y-78245074D01*
X148788286Y-78355921D01*
X148634911Y-78666840D01*
X148545140Y-79001705D01*
X148522424Y-79347650D01*
X146970004Y-79347650D01*
X146977576Y-79232350D01*
X146932366Y-78888620D01*
X146820966Y-78560315D01*
X146711714Y-78355921D01*
X146434531Y-78245074D01*
X145389605Y-79290000D01*
X145030395Y-79290000D01*
X143985469Y-78245074D01*
X143708286Y-78355921D01*
X143554911Y-78666840D01*
X143465140Y-79001705D01*
X143442424Y-79347650D01*
X139752998Y-79347650D01*
X139740785Y-79318167D01*
X139592497Y-79096238D01*
X139403762Y-78907503D01*
X139181833Y-78759215D01*
X138935239Y-78657072D01*
X138673456Y-78605000D01*
X138406544Y-78605000D01*
X138144761Y-78657072D01*
X137898167Y-78759215D01*
X137676238Y-78907503D01*
X137487503Y-79096238D01*
X137339215Y-79318167D01*
X137237072Y-79564761D01*
X137185000Y-79826544D01*
X121660000Y-79826544D01*
X121660000Y-78065469D01*
X144165074Y-78065469D01*
X145210000Y-79110395D01*
X146254926Y-78065469D01*
X146144079Y-77788286D01*
X145833160Y-77634911D01*
X145498295Y-77545140D01*
X145152350Y-77522424D01*
X144808620Y-77567634D01*
X144480315Y-77679034D01*
X144275921Y-77788286D01*
X144165074Y-78065469D01*
X121660000Y-78065469D01*
X121660000Y-69390000D01*
X121961928Y-69390000D01*
X121961928Y-71190000D01*
X121974188Y-71314482D01*
X122010498Y-71434180D01*
X122069463Y-71544494D01*
X122148815Y-71641185D01*
X122245506Y-71720537D01*
X122355820Y-71779502D01*
X122475518Y-71815812D01*
X122600000Y-71828072D01*
X124400000Y-71828072D01*
X124524482Y-71815812D01*
X124644180Y-71779502D01*
X124754494Y-71720537D01*
X124851185Y-71641185D01*
X124930537Y-71544494D01*
X124989502Y-71434180D01*
X125025812Y-71314482D01*
X125038072Y-71190000D01*
X125038072Y-69390000D01*
X125025812Y-69265518D01*
X124989502Y-69145820D01*
X124930537Y-69035506D01*
X124851185Y-68938815D01*
X124754494Y-68859463D01*
X124644180Y-68800498D01*
X124625873Y-68794944D01*
X124692312Y-68728505D01*
X124781517Y-68595000D01*
X127865001Y-68595000D01*
X127865000Y-75961546D01*
X127832795Y-76009744D01*
X127754774Y-76198102D01*
X127715000Y-76398061D01*
X127715000Y-76601939D01*
X127754774Y-76801898D01*
X127832795Y-76990256D01*
X127946063Y-77159774D01*
X128090226Y-77303937D01*
X128259744Y-77417205D01*
X128448102Y-77495226D01*
X128648061Y-77535000D01*
X128851939Y-77535000D01*
X129051898Y-77495226D01*
X129240256Y-77417205D01*
X129409774Y-77303937D01*
X129553937Y-77159774D01*
X129667205Y-76990256D01*
X129745226Y-76801898D01*
X129785000Y-76601939D01*
X129785000Y-76576655D01*
X145990000Y-76576655D01*
X145990000Y-76923345D01*
X146057636Y-77263373D01*
X146190308Y-77583673D01*
X146382919Y-77871935D01*
X146628065Y-78117081D01*
X146916327Y-78309692D01*
X147236627Y-78442364D01*
X147576655Y-78510000D01*
X147923345Y-78510000D01*
X148263373Y-78442364D01*
X148583673Y-78309692D01*
X148871935Y-78117081D01*
X149117081Y-77871935D01*
X149309692Y-77583673D01*
X149442364Y-77263373D01*
X149510000Y-76923345D01*
X149510000Y-76576655D01*
X149442364Y-76236627D01*
X149309692Y-75916327D01*
X149117081Y-75628065D01*
X148871935Y-75382919D01*
X148583673Y-75190308D01*
X148263373Y-75057636D01*
X147923345Y-74990000D01*
X147576655Y-74990000D01*
X147236627Y-75057636D01*
X146916327Y-75190308D01*
X146628065Y-75382919D01*
X146382919Y-75628065D01*
X146190308Y-75916327D01*
X146057636Y-76236627D01*
X145990000Y-76576655D01*
X129785000Y-76576655D01*
X129785000Y-76398061D01*
X129745226Y-76198102D01*
X129667205Y-76009744D01*
X129635000Y-75961546D01*
X129635000Y-75434531D01*
X144165074Y-75434531D01*
X144275921Y-75711714D01*
X144586840Y-75865089D01*
X144921705Y-75954860D01*
X145267650Y-75977576D01*
X145611380Y-75932366D01*
X145939685Y-75820966D01*
X146144079Y-75711714D01*
X146254926Y-75434531D01*
X145210000Y-74389605D01*
X144165074Y-75434531D01*
X129635000Y-75434531D01*
X129635000Y-74267650D01*
X143442424Y-74267650D01*
X143487634Y-74611380D01*
X143599034Y-74939685D01*
X143708286Y-75144079D01*
X143985469Y-75254926D01*
X145030395Y-74210000D01*
X145389605Y-74210000D01*
X146434531Y-75254926D01*
X146711714Y-75144079D01*
X146865089Y-74833160D01*
X146954860Y-74498295D01*
X146970004Y-74267650D01*
X148522424Y-74267650D01*
X148567634Y-74611380D01*
X148679034Y-74939685D01*
X148788286Y-75144079D01*
X149065469Y-75254926D01*
X150110395Y-74210000D01*
X149065469Y-73165074D01*
X148788286Y-73275921D01*
X148634911Y-73586840D01*
X148545140Y-73921705D01*
X148522424Y-74267650D01*
X146970004Y-74267650D01*
X146977576Y-74152350D01*
X146932366Y-73808620D01*
X146820966Y-73480315D01*
X146711714Y-73275921D01*
X146434531Y-73165074D01*
X145389605Y-74210000D01*
X145030395Y-74210000D01*
X143985469Y-73165074D01*
X143708286Y-73275921D01*
X143554911Y-73586840D01*
X143465140Y-73921705D01*
X143442424Y-74267650D01*
X129635000Y-74267650D01*
X129635000Y-72985469D01*
X144165074Y-72985469D01*
X145210000Y-74030395D01*
X146254926Y-72985469D01*
X146144079Y-72708286D01*
X145833160Y-72554911D01*
X145498295Y-72465140D01*
X145152350Y-72442424D01*
X144808620Y-72487634D01*
X144480315Y-72599034D01*
X144275921Y-72708286D01*
X144165074Y-72985469D01*
X129635000Y-72985469D01*
X129635000Y-68725701D01*
X133715000Y-68725701D01*
X133715000Y-69274299D01*
X133822026Y-69812354D01*
X134031965Y-70319192D01*
X134336750Y-70775334D01*
X134724666Y-71163250D01*
X135180808Y-71468035D01*
X135687646Y-71677974D01*
X136225701Y-71785000D01*
X136774299Y-71785000D01*
X137312354Y-71677974D01*
X137819192Y-71468035D01*
X138275334Y-71163250D01*
X138663250Y-70775334D01*
X138968035Y-70319192D01*
X139177974Y-69812354D01*
X139285000Y-69274299D01*
X139285000Y-68725701D01*
X139177974Y-68187646D01*
X138968035Y-67680808D01*
X138663250Y-67224666D01*
X138275334Y-66836750D01*
X137819192Y-66531965D01*
X137312354Y-66322026D01*
X136774299Y-66215000D01*
X136225701Y-66215000D01*
X135687646Y-66322026D01*
X135180808Y-66531965D01*
X134724666Y-66836750D01*
X134336750Y-67224666D01*
X134031965Y-67680808D01*
X133822026Y-68187646D01*
X133715000Y-68725701D01*
X129635000Y-68725701D01*
X129635000Y-67543469D01*
X129639281Y-67500000D01*
X129635000Y-67456531D01*
X129635000Y-66366578D01*
X129892913Y-66108665D01*
X146315000Y-66108665D01*
X146315000Y-66391335D01*
X146370147Y-66668574D01*
X146478320Y-66929727D01*
X146635363Y-67164759D01*
X146835241Y-67364637D01*
X147070273Y-67521680D01*
X147331426Y-67629853D01*
X147608665Y-67685000D01*
X147891335Y-67685000D01*
X148168574Y-67629853D01*
X148429727Y-67521680D01*
X148485210Y-67484607D01*
X148498815Y-67501185D01*
X148595506Y-67580537D01*
X148705820Y-67639502D01*
X148825518Y-67675812D01*
X148950000Y-67688072D01*
X149464250Y-67685000D01*
X149623000Y-67526250D01*
X149623000Y-66377000D01*
X149877000Y-66377000D01*
X149877000Y-67526250D01*
X150035750Y-67685000D01*
X150550000Y-67688072D01*
X150674482Y-67675812D01*
X150794180Y-67639502D01*
X150904494Y-67580537D01*
X151001185Y-67501185D01*
X151080537Y-67404494D01*
X151139502Y-67294180D01*
X151175812Y-67174482D01*
X151188072Y-67050000D01*
X151185000Y-66535750D01*
X151026250Y-66377000D01*
X149877000Y-66377000D01*
X149623000Y-66377000D01*
X149603000Y-66377000D01*
X149603000Y-66123000D01*
X149623000Y-66123000D01*
X149623000Y-64973750D01*
X149877000Y-64973750D01*
X149877000Y-66123000D01*
X151026250Y-66123000D01*
X151185000Y-65964250D01*
X151188072Y-65450000D01*
X151175812Y-65325518D01*
X151139502Y-65205820D01*
X151080537Y-65095506D01*
X151001185Y-64998815D01*
X150904494Y-64919463D01*
X150794180Y-64860498D01*
X150674482Y-64824188D01*
X150550000Y-64811928D01*
X150035750Y-64815000D01*
X149877000Y-64973750D01*
X149623000Y-64973750D01*
X149464250Y-64815000D01*
X148950000Y-64811928D01*
X148825518Y-64824188D01*
X148705820Y-64860498D01*
X148595506Y-64919463D01*
X148498815Y-64998815D01*
X148485210Y-65015393D01*
X148429727Y-64978320D01*
X148168574Y-64870147D01*
X147891335Y-64815000D01*
X147608665Y-64815000D01*
X147331426Y-64870147D01*
X147070273Y-64978320D01*
X146835241Y-65135363D01*
X146635363Y-65335241D01*
X146478320Y-65570273D01*
X146370147Y-65831426D01*
X146315000Y-66108665D01*
X129892913Y-66108665D01*
X134567838Y-61433740D01*
X146265000Y-61433740D01*
X146265000Y-61726260D01*
X146322068Y-62013158D01*
X146434010Y-62283411D01*
X146596525Y-62526632D01*
X146803368Y-62733475D01*
X147046589Y-62895990D01*
X147316842Y-63007932D01*
X147603740Y-63065000D01*
X147896260Y-63065000D01*
X148183158Y-63007932D01*
X148453411Y-62895990D01*
X148696632Y-62733475D01*
X148903475Y-62526632D01*
X149065990Y-62283411D01*
X149177932Y-62013158D01*
X149235000Y-61726260D01*
X149235000Y-61433740D01*
X149177932Y-61146842D01*
X149065990Y-60876589D01*
X148903475Y-60633368D01*
X148696632Y-60426525D01*
X148514466Y-60304805D01*
X148631355Y-60235178D01*
X148847588Y-60040269D01*
X149021641Y-59806920D01*
X149146825Y-59544099D01*
X149191476Y-59396890D01*
X149070155Y-59167000D01*
X147877000Y-59167000D01*
X147877000Y-59187000D01*
X147623000Y-59187000D01*
X147623000Y-59167000D01*
X146429845Y-59167000D01*
X146308524Y-59396890D01*
X146353175Y-59544099D01*
X146478359Y-59806920D01*
X146652412Y-60040269D01*
X146868645Y-60235178D01*
X146985534Y-60304805D01*
X146803368Y-60426525D01*
X146596525Y-60633368D01*
X146434010Y-60876589D01*
X146322068Y-61146842D01*
X146265000Y-61433740D01*
X134567838Y-61433740D01*
X136823562Y-59178017D01*
X136858665Y-59185000D01*
X137141335Y-59185000D01*
X137418574Y-59129853D01*
X137679727Y-59021680D01*
X137914759Y-58864637D01*
X138114637Y-58664759D01*
X138271680Y-58429727D01*
X138379853Y-58168574D01*
X138435000Y-57891335D01*
X138435000Y-57608665D01*
X138379853Y-57331426D01*
X138271680Y-57070273D01*
X138234607Y-57014790D01*
X138251185Y-57001185D01*
X138330537Y-56904494D01*
X138389502Y-56794180D01*
X138425812Y-56674482D01*
X138438072Y-56550000D01*
X138438072Y-55650000D01*
X146261928Y-55650000D01*
X146261928Y-57350000D01*
X146274188Y-57474482D01*
X146310498Y-57594180D01*
X146369463Y-57704494D01*
X146448815Y-57801185D01*
X146545506Y-57880537D01*
X146655820Y-57939502D01*
X146736466Y-57963966D01*
X146652412Y-58039731D01*
X146478359Y-58273080D01*
X146353175Y-58535901D01*
X146308524Y-58683110D01*
X146429845Y-58913000D01*
X147623000Y-58913000D01*
X147623000Y-58893000D01*
X147877000Y-58893000D01*
X147877000Y-58913000D01*
X149070155Y-58913000D01*
X149191476Y-58683110D01*
X149146825Y-58535901D01*
X149021641Y-58273080D01*
X148847588Y-58039731D01*
X148763534Y-57963966D01*
X148844180Y-57939502D01*
X148954494Y-57880537D01*
X149051185Y-57801185D01*
X149130537Y-57704494D01*
X149189502Y-57594180D01*
X149225812Y-57474482D01*
X149238072Y-57350000D01*
X149238072Y-55650000D01*
X149225812Y-55525518D01*
X149189502Y-55405820D01*
X149130537Y-55295506D01*
X149051185Y-55198815D01*
X148954494Y-55119463D01*
X148844180Y-55060498D01*
X148724482Y-55024188D01*
X148600000Y-55011928D01*
X146900000Y-55011928D01*
X146775518Y-55024188D01*
X146655820Y-55060498D01*
X146545506Y-55119463D01*
X146448815Y-55198815D01*
X146369463Y-55295506D01*
X146310498Y-55405820D01*
X146274188Y-55525518D01*
X146261928Y-55650000D01*
X138438072Y-55650000D01*
X138438072Y-54950000D01*
X138425812Y-54825518D01*
X138389502Y-54705820D01*
X138330537Y-54595506D01*
X138251185Y-54498815D01*
X138154494Y-54419463D01*
X138044180Y-54360498D01*
X137924482Y-54324188D01*
X137800000Y-54311928D01*
X136200000Y-54311928D01*
X136075518Y-54324188D01*
X135955820Y-54360498D01*
X135845506Y-54419463D01*
X135748815Y-54498815D01*
X135669463Y-54595506D01*
X135610498Y-54705820D01*
X135574188Y-54825518D01*
X135561928Y-54950000D01*
X135561928Y-56550000D01*
X135574188Y-56674482D01*
X135610498Y-56794180D01*
X135669463Y-56904494D01*
X135748815Y-57001185D01*
X135765393Y-57014790D01*
X135728320Y-57070273D01*
X135620147Y-57331426D01*
X135565000Y-57608665D01*
X135565000Y-57891335D01*
X135571983Y-57926438D01*
X128154952Y-65343470D01*
X128121184Y-65371183D01*
X128093471Y-65404951D01*
X128093468Y-65404954D01*
X128010590Y-65505941D01*
X127928412Y-65659687D01*
X127877805Y-65826510D01*
X127860719Y-66000000D01*
X127865001Y-66043479D01*
X127865000Y-66825000D01*
X124728063Y-66825000D01*
X124692312Y-66771495D01*
X124478505Y-66557688D01*
X124227095Y-66389701D01*
X123947743Y-66273989D01*
X123651184Y-66215000D01*
X123348816Y-66215000D01*
X123052257Y-66273989D01*
X122772905Y-66389701D01*
X122521495Y-66557688D01*
X122307688Y-66771495D01*
X122139701Y-67022905D01*
X122023989Y-67302257D01*
X121965000Y-67598816D01*
X121965000Y-67901184D01*
X122023989Y-68197743D01*
X122139701Y-68477095D01*
X122307688Y-68728505D01*
X122374127Y-68794944D01*
X122355820Y-68800498D01*
X122245506Y-68859463D01*
X122148815Y-68938815D01*
X122069463Y-69035506D01*
X122010498Y-69145820D01*
X121974188Y-69265518D01*
X121961928Y-69390000D01*
X121660000Y-69390000D01*
X121660000Y-58742702D01*
X129936903Y-58742702D01*
X130008486Y-58986671D01*
X130263996Y-59107571D01*
X130538184Y-59176300D01*
X130820512Y-59190217D01*
X131100130Y-59148787D01*
X131366292Y-59053603D01*
X131491514Y-58986671D01*
X131563097Y-58742702D01*
X130750000Y-57929605D01*
X129936903Y-58742702D01*
X121660000Y-58742702D01*
X121660000Y-57820512D01*
X129309783Y-57820512D01*
X129351213Y-58100130D01*
X129446397Y-58366292D01*
X129513329Y-58491514D01*
X129757298Y-58563097D01*
X130570395Y-57750000D01*
X130556253Y-57735858D01*
X130735858Y-57556253D01*
X130750000Y-57570395D01*
X130764143Y-57556253D01*
X130943748Y-57735858D01*
X130929605Y-57750000D01*
X131742702Y-58563097D01*
X131986671Y-58491514D01*
X132107571Y-58236004D01*
X132176300Y-57961816D01*
X132190217Y-57679488D01*
X132148787Y-57399870D01*
X132053603Y-57133708D01*
X131988384Y-57011691D01*
X132001185Y-57001185D01*
X132080537Y-56904494D01*
X132139502Y-56794180D01*
X132175812Y-56674482D01*
X132188072Y-56550000D01*
X132188072Y-54950000D01*
X132175812Y-54825518D01*
X132139502Y-54705820D01*
X132080537Y-54595506D01*
X132001185Y-54498815D01*
X131904494Y-54419463D01*
X131794180Y-54360498D01*
X131674482Y-54324188D01*
X131550000Y-54311928D01*
X129950000Y-54311928D01*
X129825518Y-54324188D01*
X129705820Y-54360498D01*
X129595506Y-54419463D01*
X129498815Y-54498815D01*
X129419463Y-54595506D01*
X129360498Y-54705820D01*
X129324188Y-54825518D01*
X129311928Y-54950000D01*
X129311928Y-56550000D01*
X129324188Y-56674482D01*
X129360498Y-56794180D01*
X129419463Y-56904494D01*
X129498815Y-57001185D01*
X129511758Y-57011807D01*
X129392429Y-57263996D01*
X129323700Y-57538184D01*
X129309783Y-57820512D01*
X121660000Y-57820512D01*
X121660000Y-54160000D01*
X151340001Y-54160000D01*
X151340000Y-67032418D01*
G37*
%TD.AperFunction*%
%TD*%
M02*
